/* XPM */
static char *_74025440e364663f1285f93211a0439JEwSiWnQyzRaQm6R[] = {
/* columns rows colors chars-per-pixel */
"16 16 190 2 ",
"   c None",
".  c #3E3A2A",
"X  c #423B26",
"o  c #463E25",
"O  c #423F2F",
"+  c #423F30",
"@  c #474129",
"#  c #514A2B",
"$  c #584F2E",
"%  c #5C522D",
"&  c #5D532F",
"*  c #434030",
"=  c #444131",
"-  c #454230",
";  c #444231",
":  c #454231",
">  c #464331",
",  c #454232",
"<  c #464431",
"1  c #464432",
"2  c #474432",
"3  c #474532",
"4  c #494631",
"5  c #484532",
"6  c #484633",
"7  c #494633",
"8  c #4D4932",
"9  c #4F4A32",
"0  c #4F4B33",
"q  c #4A4834",
"w  c #4C4935",
"e  c #4D4A34",
"r  c #4D4B35",
"t  c #4D4B36",
"y  c #4E4C35",
"u  c #4F4C35",
"i  c #4E4C36",
"p  c #4F4D36",
"a  c #4F4D37",
"s  c #534D30",
"d  c #554E31",
"f  c #504D35",
"g  c #504E37",
"h  c #514F37",
"j  c #524E36",
"k  c #514F38",
"l  c #565033",
"z  c #565135",
"x  c #595331",
"c  c #5B5535",
"v  c #595536",
"b  c #5D5736",
"n  c #5D5837",
"m  c #5F5A37",
"M  c #525038",
"N  c #535038",
"B  c #565339",
"V  c #595539",
"C  c #5A573A",
"Z  c #5A583C",
"A  c #5C5A3C",
"S  c #5F5C3C",
"D  c #5E5C3D",
"F  c #64572A",
"G  c #64592F",
"H  c #615931",
"J  c #615932",
"K  c #625E3B",
"L  c #645F3B",
"P  c #605D3D",
"I  c #635F3D",
"U  c #615F3F",
"Y  c #676139",
"T  c #64613D",
"R  c #68643E",
"E  c #69643E",
"W  c #68653F",
"Q  c #6B663F",
"!  c #6F693C",
"~  c #6D683E",
"^  c #756B37",
"/  c #786C34",
"(  c #756E3F",
")  c #7A6F39",
"_  c #666340",
"`  c #686541",
"'  c #686542",
"]  c #696744",
"[  c #6F6C43",
"{  c #6A6844",
"}  c #6F6D45",
"|  c #706C43",
" . c #706D45",
".. c #716E45",
"X. c #747147",
"o. c #7A7443",
"O. c #7D7743",
"+. c #757348",
"@. c #857836",
"#. c #887935",
"$. c #81773F",
"%. c #807A43",
"&. c #857D42",
"*. c #817D4B",
"=. c #837F4C",
"-. c #827F4F",
";. c #92843B",
":. c #97873A",
">. c #96883E",
",. c #9C8B3B",
"<. c #A68622",
"1. c #A28F38",
"2. c #A89234",
"3. c #B79B31",
"4. c #BDA436",
"5. c #BFA93F",
"6. c #C1A63A",
"7. c #C0A93A",
"8. c #878045",
"9. c #8E8342",
"0. c #87824A",
"q. c #8B8449",
"w. c #8D864A",
"e. c #88844E",
"r. c #8C874C",
"t. c #8C874F",
"y. c #8D884E",
"u. c #8C884F",
"i. c #918846",
"p. c #958D49",
"a. c #918B4D",
"s. c #938D4D",
"d. c #948E4E",
"f. c #98914E",
"g. c #848250",
"h. c #868552",
"j. c #888651",
"k. c #898752",
"l. c #888653",
"z. c #8B8953",
"x. c #8E8950",
"c. c #8B8954",
"v. c #8B8A55",
"b. c #938D50",
"n. c #918D52",
"m. c #918E54",
"M. c #928F54",
"N. c #959051",
"B. c #959154",
"V. c #979254",
"C. c #949156",
"Z. c #969356",
"A. c #999453",
"S. c #9A9554",
"D. c #939158",
"F. c #939259",
"G. c #949259",
"H. c #A69643",
"J. c #A39748",
"K. c #A5994A",
"L. c #A4994C",
"P. c #AD9F4A",
"I. c #A19A54",
"U. c #A09A55",
"Y. c #A89E53",
"T. c #A09F5F",
"R. c #ABA04F",
"E. c #B2A146",
"W. c #B8A642",
"Q. c #B7A94D",
"!. c #B9A94B",
"~. c #BFAF4A",
"^. c #BBAD4E",
"/. c #B4A955",
"(. c #BDB154",
"). c #BCB35A",
"_. c #BDB55E",
"`. c #BCB55F",
"'. c #B5B163",
"]. c #BAB768",
"[. c #BDBC6E",
"{. c #BEBE6F",
"}. c #BFBE6F",
"|. c #CDB443",
" X c #C3B24D",
".X c #C6B34C",
"XX c #C3B85A",
"oX c #C0BA65",
"OX c #C3C16F",
"+X c #D3C863",
/* pixels */
"          .XP.K.L.R.XX          ",
"       X) E *.u.r.=. .0.oX      ",
"    P.s W w.d.r.u.S.V.A g ].    ",
"  (.~ L s.W 1 a r r  .V.+.D }.  ",
"  ( 0 A.A 5 $ & b l 5 A G.k j.  ",
"`.T x.} r $.3.<.6.|.F 5 { G.g [.",
"V.- M.a J 5.X o !./ 2.J g G.B T.",
"M. .c.g z H.G E.^ & Q.n g c.U j.",
"-.M l.1 @ 0 Y.+XI./.I * - h.I e.",
"T.' F.t t M d ,.J.c + 6 k n.C S.",
"}.* c.{ M t O #.9.t q * | b.0 ).",
"  g.' G.Z 1 r a @ 6 , Z f.z &.  ",
"  OXr +.Z.R 1 a a a ~ p.o.x ~.  ",
"    '.I g N.s.q.&.i.i.n # W.    ",
"      `.O.v . ~ %.Y @ @.7.      ",
"          ^.>.;.:.1.4.          "
};
