/* XPM */
static char *c7b061b47e6f4635d035761cbae37d64Rm60C2nuz61OyUMZ[] = {
/* columns rows colors chars-per-pixel */
"64 64 215 2 ",
"   c None",
".  c #1E1B1E",
"X  c #201D1F",
"o  c #3E331F",
"O  c #332B1F",
"+  c #1F1D20",
"@  c #221F20",
"#  c #252221",
"$  c #292623",
"%  c #2D2A25",
"&  c #312E26",
"*  c #322F28",
"=  c #353125",
"-  c #3A3425",
";  c #353229",
":  c #39362B",
">  c #3D3B2D",
",  c #3E3825",
"<  c #3F3D30",
"1  c #46391F",
"2  c #443B22",
"3  c #4A3F21",
"4  c #413E2E",
"5  c #413F30",
"6  c #4B4123",
"7  c #44412E",
"8  c #4A452D",
"9  c #49442B",
"0  c #534C2C",
"q  c #554A24",
"w  c #5C5229",
"e  c #454231",
"r  c #494633",
"t  c #4D4A35",
"y  c #514E35",
"u  c #514F38",
"i  c #545136",
"p  c #5B5533",
"a  c #555239",
"s  c #59563B",
"d  c #5D5A3C",
"f  c #5F5935",
"g  c #655929",
"h  c #635C34",
"j  c #615E3D",
"k  c #64613E",
"l  c #6B653B",
"z  c #6D6538",
"x  c #756C38",
"c  c #7B723B",
"v  c #77703D",
"b  c #7A692F",
"n  c #605E40",
"m  c #656341",
"M  c #696642",
"N  c #6C6A44",
"B  c #716E44",
"V  c #706E48",
"C  c #737146",
"Z  c #7A7544",
"A  c #757349",
"S  c #79764A",
"D  c #7C7A4B",
"F  c #7F7A47",
"G  c #7F7D50",
"H  c #947C26",
"J  c #877A37",
"K  c #887327",
"L  c #827B44",
"P  c #817E4D",
"I  c #9B8228",
"U  c #968639",
"Y  c #BC9929",
"T  c #A89538",
"R  c #B29C39",
"E  c #A68D2E",
"W  c #E5B31F",
"Q  c #C8A629",
"!  c #DBB62B",
"~  c #D6BA3B",
"^  c #CFB135",
"/  c #EABC23",
"(  c #E6B621",
")  c #ECC228",
"_  c #F9C623",
"`  c #F8CA2A",
"'  c #EBC637",
"]  c #F6CD36",
"[  c #FDDA3D",
"{  c #FAD438",
"}  c #8A8244",
"|  c #85834E",
" . c #8A854B",
".. c #8E894F",
"X. c #948A44",
"o. c #928B4C",
"O. c #988B40",
"+. c #9D944B",
"@. c #858351",
"#. c #898652",
"$. c #8D8B54",
"%. c #908D53",
"&. c #918F58",
"*. c #949155",
"=. c #999555",
"-. c #9E9853",
";. c #959359",
":. c #9B995D",
">. c #99975B",
",. c #A49948",
"<. c #A29E5B",
"1. c #A19A53",
"2. c #B1A54D",
"3. c #B5A346",
"4. c #ADA452",
"5. c #A5A35D",
"6. c #AAA55B",
"7. c #ADA95D",
"8. c #B4AA54",
"9. c #B3AC5A",
"0. c #B6AB57",
"q. c #B9B15C",
"w. c #AEA24A",
"e. c #A5A362",
"r. c #ADAA63",
"t. c #AFAE68",
"y. c #B2AE62",
"u. c #B0AF68",
"i. c #B6B264",
"p. c #BDB965",
"a. c #B4B36A",
"s. c #BCBA6C",
"d. c #B9B566",
"f. c #BEBD70",
"g. c #C9B64A",
"h. c #C8BA55",
"j. c #C2BD67",
"k. c #DCC54A",
"l. c #CEC159",
"z. c #D8C858",
"x. c #DFD05E",
"c. c #E8CB46",
"v. c #ECD249",
"b. c #F5D443",
"n. c #FEDD43",
"m. c #F7DA4A",
"M. c #ECD553",
"N. c #ECDA5C",
"B. c #E7D45A",
"V. c #F4DB54",
"C. c #F8DF56",
"Z. c #F3DD5B",
"A. c #F8DF58",
"S. c #E5CF58",
"D. c #FFE047",
"F. c #FEE24C",
"G. c #FDE454",
"H. c #F6E15C",
"J. c #FBE45C",
"K. c #FEE95C",
"L. c #FFE856",
"P. c #CEC563",
"I. c #C5C26B",
"U. c #CDCA6E",
"Y. c #CBC66C",
"T. c #D3CB6A",
"R. c #D4C963",
"E. c #DBD269",
"W. c #CDCC74",
"Q. c #C7C672",
"!. c #D3CF72",
"~. c #DAD673",
"^. c #DCD975",
"/. c #D4D47A",
"(. c #DDDC7C",
"). c #D6D477",
"_. c #EBDC64",
"`. c #E4D969",
"'. c #E3DD74",
"]. c #E2DF7A",
"[. c #E8DE70",
"{. c #EDE16C",
"}. c #EFE163",
"|. c #F5E463",
" X c #F9E664",
".X c #FDEC64",
"XX c #F4E669",
"oX c #FBEC6B",
"OX c #F6EA6E",
"+X c #FFF066",
"@X c #FFF26C",
"#X c #EDE574",
"$X c #E4E27B",
"%X c #EAE57B",
"&X c #EDE97D",
"*X c #E7E175",
"=X c #F5EB74",
"-X c #FAEE72",
";X c #F4ED7A",
":X c #F3E973",
">X c #FEF274",
",X c #FDF57C",
"<X c #FFF97C",
"1X c #F7F17E",
"2X c #DFDF80",
"3X c #ECEB85",
"4X c #E7E683",
"5X c #F3EF81",
"6X c #F6F383",
"7X c #FAF683",
"8X c #FFFB84",
"9X c #F5F48A",
"0X c #FEFD8C",
"qX c #F8F689",
"wX c #FFFF91",
/* pixels */
"                                                    V.V.A.A.A.A.J.A.|.|.|.|.                                                    ",
"                                            V.V.A.A.A.V.M.B.z.z.S.S.B.Z.|. XoX XXXXX                                            ",
"                                        V.C.C.M.k.3.} c w i Z x e : h z z X.8.z.XXoXoXOX                                        ",
"                                  V.V.V.M.g.U l ; i <.o.$ i p.6.L + 1.<.r Z $ : h o.R.OX>X-X=X                                  ",
"                                V.C.M.3.h k ;.a.* m I.A ; a W.p.S $ y.j.&.%.X & 5.B * l q.#X,X>X                                ",
"                            V.A.M.3.p $ X d @.a.# e /.@.: a d.%.r.: u.$.^.A @ ..s.;.. . $ s q.=X,X;X                            ",
"                          V.H.h.z $ . # @ . V &.% ; f.e.V 4 e.>.s : P 5 W.s M /.s.;.. % - > : B !.,X,X                          ",
"                      N.A.Z.,.2 r : : X @ X e.f.:.5 m S Z Z o.o.X. .L j M 5 S u ;.=.. * r.I.7 . 4 6.1X7X6X                      ",
"                    Z.J.S.x $ % r.U.t X @ @ A | | 4.R._.=X-X>X>X>X,X>X-X#XT.6.B k s . r I.^.N $ X $ P %X8X6X                    ",
"                  Z.J.z.f X X y p.~.N @ # p ,.E.oX-X_.R.0.,.o.| P o.1.i.T.:X,X,X'.1.i * 9 N $ X @ @ @ k ].0X7X                  ",
"                |. Xz.y X X X X t s $ y 4.XXoX_.0.L k j M N B P M A M j d k L d.#X8X:Xe.t $ X # @ @ @ . s ^.0X7X                ",
"              }. Xz.0 . # X # @ @ ; } `.>XE.o.k j M d u m s t m e A j d A #.| j M =.$X8X$X#.% . @ X * > $ j $X0XqX              ",
"              |.B.h . % # @ @ X 8 q.>XXX-.d S S e $ X * u a t n j a a a M e m i @.V d 5.5X8Xp.e X @ a I.*.$ m 3X0X              ",
"             XXXv e S | # @ @ p R.>XP.l M M V $ ; a $ i a s d a r m a a > X e d e D @.M N !.0X~.a % #.%Xy.; . P qX0X            ",
"          XXOX,.# e ].~.j @ j `.>X4.d A N ; u $ t y * t t s a r a : d * # : 4 s > = A A @.d a.0X4Xd % F r % X $ r.wX0X          ",
"          oXl.: # t $.=.% d `.-X-.k @.s t > M a C e ; t r d y : e u * $ y t a M M r m ; M D d e.0X4Xd # . @ @ @ 5 /.wX          ",
"        OXXXl + @ @ $ : 8 E.>X-.d S a t t ; n a t % e u y d r > r u & u < t e a m N < # r a B n e.0X(.e + # @ . . C 9XwX        ",
"      OXoX0.$ @ @ @ . * q.,X9.s n : t t t r M t * 5 a a a s % e s A A r t < t > : j > % a u u $.d a.wXs.% + @ # # $ s.wXwX      ",
"      -X{.i + @ @ @ X ..<XY.j D ; m u r u : M % % : > 4 r % @ : < < % r ; ; & . + j < y a a d d C d /.wX$.# X ; s @ d 9XwX      ",
"      >X9.# $ $ X . i #X:XM D V a V t t t % % # 2 1 1 1 3 3 9 8 8 r t t r t 9 6 $ 7 > y t s s + e S V 9X3Xt : >.).| ; s.wX      ",
"    -X=Xk : F s $ $ 7.<X-.N m n M n e t s : + V ' ! W W ( / ) ' v.M.}.:X%X}.S.c.I # ; u t d u + < M d e.wXt.% ;.].V . M 0X0X    ",
"    ,XP.* A &Xp.e s ;X^.d G s N a d t $ s * t ].G.` _ _ _ _ _ _ _ _ ` ] ] ] ] ] ! , % t u d u + t t D m 4X9Xa u r e + ; /.wX    ",
"  ;X,X... s i.$.$ 7.8X*.V d r t M a s > = = h.7XH.` _ ) ) / / / / ( ( ` { { b.' H # + : s d N r r < N M >.wXe.# X X @ + >.wXwX  ",
"  ,X=Xs . % $ : e *X$Xn G a u e e e a k @ U oX8XV.K 1 6 6 3 3 6 1 1 z [.<X=XF.I X q I % < ; : s a a a @.m 3X4X< X X @ + n 9X0X  ",
"  ,XT.; X @ @ . S 8Xy.m s a i a : < N ; g ] .XK.E $ . . + + + + . 9 R.0X<XG.I @ q ( ` K # # $ y e t a M n s.wXA X X X X : 2XwX  ",
"  8Xy.# @ @ @ # i.8XD M $ ; a u t d > , ! [ n.~ 2 @ X # + # @ . 9 l.<X<XF.I $ @ E { { ) q % a k $ $ e d S @.wXt.@ X X # # d.wX  ",
",X7X| X @ # # ; ^.&Xm @.a . : t r X $ E [ n.c.g + X @ @ # + + 7 l.+X+XF.I $ X X 2 ~ [ [ ^ = ; y M ; @ t N M 9X/.: & y y . &.wX0X",
"7X7XM X $ . . y 6XW.n N r i t M k @ 0 b.G.G.g.$ @ X # @ # + 2 ^ F.L.F.U % X @ @ $ 3.+XK.[ g # e t r t d C m /.9Xy N ~.y.5 N 0X0X",
"7X5Xu # F a * N 0Xy.N M a D t k N e $ X.K.K.m.K # X @ @ + 2 ^ n.G.L.T $ # + # X b |.8X@X3.& > a a M N r D N d.wXm s !.5.% s 9X0X",
"8X%Xr B ].U.> @.0X:.V m a M a r s a > % 4.@XG.' x # # + 1 Q n.K..X,.$ @ # X . w c.+X@Xl., ; s d d d M t s C <.wXP ; > y X r 5X0X",
"0X].: > i.5.; ;.0X$.S m d d s a 4 M t ; : l.oX{ `.9 . o Y F.oX@X,.% X @ . . 1 ! F.+XB.0 % s n d d d s a s M ;.0X&.. X # X 4 $X0X",
"0X].: $ > $ $ :.wX@.N > r r r > ; a a = . y `.n.8.& o Y K.>X>X4.% @ @ @ X $ Y F.@XXXl = t N a ; 7 r e r > M #.0X;.X @ X X : $X0X",
"0X(.; X X # + :.wX@.N u e e < e 5 e a $ @ @ l R = & 3.-X8X8Xi.: $ $ $ $ % U  X,X,X .$ t N t $ : u 5 e < r C #.0X;.. @ @ . > $X8X",
"0X4X> X X @ + ;.wX#.@.e . . > < 5 5 4 s 4 @ @ $ 2 h.8X0X0X0X(.W.W.W.Y.j.g.;X0X8X7.$ % e > # : M $ + $ e t N *.0X%.. @ . @ > $X8X",
"0X3Xe . @ @ . @.wX:.V t > r a t r y j u 4 5 e @ #.8X0X8X8X8X,X>X>X<X0X>XJ.OX0XQ.: + + r < > e r > < a u a N :.0X| % * 7 X r &X8X",
"0X6Xa X @ X . V wXu.M m t i r : : : r y d n j % e T._.M.c.' ] m.|.;X6X:XM.b.R.t > ; < s a t t t t t u > i M d.8Xk d I.%.@ s 1X<X",
"wX0Xm + t e e s 9XW.m M e m t > y * 4 N 4 u a 5 $ - 2 2 1 1 q 0 0 y i y y w 2 @ i > d e e e d a e u m > d d !.6Xy D %Xd.e N ,X,X",
"0XwX@.+ @.].P ; 2X3Xm d < s s n i 5 s j t B 4 y 5 @ @ 8 i 0 0 $ # 8 y y 0 $ + % e > < e X > M > % t d s @.M &X^.: ; N t X ..<X,X",
"  wXt.: $.^.&.; a.wXG M N t < s t n a t s N N u a % % b M.N.}.U c B.Z.Z.O.% > 5 a > r t > M a * < M > i | P <X9.# . # # # q.<X  ",
"  wX/.* % n $ # G wXt.m G > + + 5 N y a u u d n - 5 s $ I { V.M.M.V. Xg.- e s m $ % e e d ; t % e n $ 7 d i.8XZ X X # + ; E.,X  ",
"  wX9Xs + @ @ + r 3X4Xm #.V * % : n s u s s d : + e m @ = Y { b.b. XE.r $ u 5 e : a u s > r * i d M s k k %X*X7 X X @ X p OX>X  ",
"  wXwX&.+ @ @ @ # u.wX&.N N % n u u u a s d r # @ % % + $ 3 ! n.J.;XM X * u s d d t $ : s % a a y s n k =.<X4.# X X X X o.<X>X  ",
"    wXW.* @ @ @ + d qX2Xn #.$ a r r u s n 5 M s a a t & k $ w b..XP @ : s u d j j a d d 4 + a t r j | f `.=Xs t : : X & R.>X    ",
"    0X9Xn . @ @ + * s.wX>.N s n N N m d : d n u a i < t e e & c ,.& r M n s d * * n M 5 X @ r t t P C -.<X7.; 7.U.s . k oXoX    ",
"    0XwXt.# # d S i a 3X3XM G r 5 u M 5 @ s t 5 5 t a i a > t $ $ : y * 5 d N @ r M < @ @ % a t j | l :X{.t r d.^.l # 8.@X      ",
"      wX3Xs . #.7X<.: ;.wXW.s m * u e m $ e 5 5 e t k N < e M r & y % $ t 5 m 5 t $ s s r a a d | d P.>Xo.# . i i % p |.oX      ",
"      0X0Xt.* V u.N % * Q.wXr.d &.t $ u d % + e M > y A V M e a y ; r u : # a u # + s s t t s P d 4.>Xl.= X @ # # $ 8.+X X      ",
"        0X9XM . > % @ + u ].0X:.n &.< r a % < s k s # t a i > m : d r % & * M u # r s u r s G d +.@XE.r . @ @ + . z  X.X        ",
"          0XW.> + # @ @ X m %XqX>.n N s e r M s e + # $ a y < a u m n d k j N t > t 5 5 a D d +.@X`.h # X @ @ X , z.K.          ",
"          0X0X:.# + @ @ @ @ N 3X8X7.d A m * a r % ; + e a a a n s s s s j % s r a t % S | s 4.@X}.k 7 B : # @ # +.K.K.          ",
"            0X6XA X @ # # t 7 j $X8XU.M M M m X > d % a t a d t u u n u + # : s ; k $.B z l.+Xx.f 4 7.&X#.$ @ c G.L.            ",
"              0X$Xd . # N U.6.7 t I.8X%X;.n N N D t % t t d t 4 t 7 y + : y s | P k d +.}.+Xh.8 + # | I.l . f M.G.              ",
"              qX0X^.t . a ^.i.; . = ;.:X<X~...j B V M N n M i > e d * r C k N k k X.x.+XN.X.* + @ @ e & * 0 k.L.G.              ",
"                7X8X!.t > t s # @ @ # s q.;X<X[.7.Z k k N C B B C A m N k j c 8.N.+X|.2.p $ X @ @ @ + + 0 k.F.G.                ",
"                  7X8X~.a . # . @ @ @ . > d 7.#X<X>X{.l.4.+.} F L } o.2.l.N.+X+XN.w.h 4 M a X X @ @ @ w k.F.F.                  ",
"                    1X<X#XC $ . @ . $ ; =.j > 9 L q.`.OX>X@X>X@X@X@X@X+XK.x.2.c 9 # + C &Xp.r X + # b v.D.F.                    ",
"                      ,X<X=X-.; . @ % | &Xp.= . X # - i x } X.+.+.U U z 0 9 & + X @ X d s.=.$ . = T m.D.m.                      ",
"                          ,X,XR.k $ . e 6.| % X @ @ X X + f c > e v 4 4 ..v d + @ @ @ = % 4 $ h ~ D.n.                          ",
"                            >X>X:X4.i = $ @ $ @ @ @ @ @ + t 4., F q.L > q.q. .+ @ @ . . # 0 R { D.n.                            ",
"                                @X>X}.4.d * . . @ @ @ X % -.C @ Z 7.=.% ..C ..+ . . % g R ] D.D.                                ",
"                                  oXoX@X}.l.U i = # . . * Z S = i | a + : + # & q U ^ b.n.[ [                                   ",
"                                       X+X.X.XH.z.,.U g 8 , - = = , , 0 g U R ~ b.n.n.[ [                                       ",
"                                            K.K.K.K.G.H.F.v.c.k.k.k.c.{ n.D.n.n.[ [                                             ",
"                                                    G.F.L.F.F.D.D.D.D.n.n.n.                                                    "
};
