/* XPM */
static char *b865def190214c17f9d475175a53cc9eWKUAQBzz5qVilEsU[] = {
/* columns rows colors chars-per-pixel */
"32 32 189 2 ",
"   c None",
".  c #1D1A1E",
"X  c #211E1F",
"o  c #2B251F",
"O  c #1E1C20",
"+  c #211E20",
"@  c #262322",
"#  c #292623",
"$  c #2D2A25",
"%  c #312F27",
"&  c #3A3324",
"*  c #35322A",
"=  c #39362B",
"-  c #3D3B2D",
";  c #423A25",
":  c #423E2D",
">  c #483E26",
",  c #423F30",
"<  c #45402D",
"1  c #4C452B",
"2  c #4D4325",
"3  c #524826",
"4  c #504728",
"5  c #524A2C",
"6  c #594F29",
"7  c #5E5027",
"8  c #5A522E",
"9  c #454331",
"0  c #494633",
"q  c #4D4B35",
"w  c #514E36",
"e  c #514F38",
"r  c #555135",
"t  c #5B5533",
"y  c #545239",
"u  c #59573A",
"i  c #5C5A3C",
"p  c #5F5936",
"a  c #645523",
"s  c #665C2E",
"d  c #6B5E2D",
"f  c #625B35",
"g  c #625E3C",
"h  c #736128",
"j  c #66623E",
"k  c #6B653C",
"l  c #6E6537",
"z  c #736B3B",
"x  c #796E35",
"c  c #7E7135",
"v  c #7D733B",
"b  c #656341",
"n  c #686642",
"m  c #6C6A43",
"M  c #716E44",
"N  c #737045",
"B  c #7D7947",
"V  c #767348",
"C  c #7A7748",
"Z  c #7D7B4B",
"A  c #7A7646",
"S  c #9B7E22",
"D  c #967A21",
"F  c #827331",
"G  c #8B7B32",
"H  c #877B3C",
"J  c #847C44",
"K  c #887F42",
"L  c #827E4B",
"P  c #817F50",
"I  c #958334",
"U  c #A68B28",
"Y  c #AB9536",
"T  c #B09936",
"R  c #CEAC2A",
"E  c #C3A734",
"W  c #D1B53D",
"Q  c #DBBF3D",
"!  c #E6B520",
"~  c #E7B822",
"^  c #E8BC28",
"/  c #E1BD38",
"(  c #E1C33E",
")  c #E9C639",
"_  c #FCDB3F",
"`  c #878046",
"'  c #8D8445",
"]  c #85814B",
"[  c #8B864B",
"{  c #8E894E",
"}  c #928846",
"|  c #928642",
" . c #99914E",
".. c #848252",
"X. c #898751",
"o. c #8D8A53",
"O. c #918D52",
"+. c #949154",
"@. c #999556",
"#. c #959359",
"$. c #9C9958",
"%. c #A89A46",
"&. c #A4994C",
"*. c #A69F55",
"=. c #AFA149",
"-. c #BAAC4D",
";. c #B0A54E",
":. c #ADA453",
">. c #ACA65A",
",. c #AFA859",
"<. c #BAAF55",
"1. c #B3AB5A",
"2. c #B1A855",
"3. c #BEB357",
"4. c #BBB35C",
"5. c #ADAB65",
"6. c #A7A561",
"7. c #B1AE63",
"8. c #B3B066",
"9. c #B9B563",
"0. c #B4B369",
"q. c #BBBA6C",
"w. c #C2A940",
"e. c #CCB94C",
"r. c #CCB547",
"t. c #D5BE4A",
"y. c #C6B956",
"u. c #CCBD54",
"i. c #C5BB5D",
"p. c #C1B557",
"a. c #C3BC63",
"s. c #C2BF6C",
"d. c #DDC344",
"f. c #DBC74E",
"g. c #CCC15F",
"h. c #DAC753",
"j. c #DCCB56",
"k. c #DFD05B",
"l. c #E5C844",
"z. c #E4CB4B",
"x. c #EBD24C",
"c. c #EAD047",
"v. c #F3D443",
"b. c #FDDD42",
"n. c #E3CD53",
"m. c #E0CE59",
"M. c #EBD555",
"N. c #E5D35B",
"B. c #EBD95E",
"V. c #EAD75C",
"C. c #F4DC55",
"Z. c #F3DF5E",
"A. c #FFE44D",
"S. c #FFE457",
"D. c #FFEB5F",
"F. c #FAE65C",
"G. c #C5C26E",
"H. c #CAC56B",
"J. c #C9C264",
"K. c #DBCE62",
"L. c #D7CC62",
"P. c #DBD36B",
"I. c #DFD466",
"U. c #C5C472",
"Y. c #CAC975",
"T. c #DCDB7C",
"R. c #ECDD65",
"E. c #E4DA6C",
"W. c #E1D665",
"Q. c #E1DE7A",
"!. c #E9DE70",
"~. c #F8E767",
"^. c #FBEC6A",
"/. c #EBE372",
"(. c #E7E278",
"). c #EAE67B",
"_. c #F5EE77",
"`. c #F9EE73",
"'. c #F2EC7C",
"]. c #FDF57C",
"[. c #FDF375",
"{. c #E0DF80",
"}. c #E5E481",
"|. c #ECEA81",
" X c #F4F286",
".X c #F3F389",
"XX c #FEFD8F",
"oX c #FEFC87",
"OX c #FFFF90",
/* pixels */
"                        C.M.n.h.h.m.R.~.                        ",
"                  C.h.-.| } f  .g K J J <.W.`.                  ",
"              C.f.H p X.e #.y 5.n @.{ w o.q [ P.].              ",
"            M.%.u @ @ X.g O.B @.L L Z Z o.% M u >.'.            ",
"          N.v - $.9 - *.i.i.i.4.4.a.a.9.@.w L - @ L ).          ",
"        N.l X @ q K i.<.] j b b j n A O.9.H.L # O * Z |.        ",
"      R.' r # = :.a.L u - = y u u y 0 y n X.H.5.- o.b L .X      ",
"    ^.&.< @.w 4.2.m q q q 9 y q 0 - - e w i M 7.q.i * # 5.OX    ",
"    L.: X * 2.>.i e 0 y - 0 e - q q 9 0 u - q m 0.5.$ O 9 {.    ",
"  `.[ @ X L a.M u e 9 - > 3 4 2 r u q < - 0 y q b H.Z q m #.OX  ",
"  P.j [ q J.Z b i 0 - N / ! ~ ^ ) l.z.( h = u - q ..Y.m M 0 }.  ",
"  >.= b o.0.b e e q 8 E.r.U S S D W S.W a 2 9 0 e b q...O @ 0.  ",
"oXB X # 9.X.0 q 0 5 E x.7 O X O j /.h.3 U R - 0 - y #.q.@ O P OX",
"'.u + : H.V 9 e - c A.I O @ X d M.f.4 . G A.I - 0 0 V Y.i Z n .X",
"Q.g ] m U.m g u e t k.W ; . a c.f.4 . & u.R.f q i i m U.N M y }.",
"T.w j V s.g y q q : j M.v 7 n.K.5 . o T F.v q e y e i s.b . , Q.",
"{.- O n U.i * - 9 9 $ 8 l E.oX9.Z B &._.+.- 9 - * - u s.b . - T.",
"}.- O i U.b 0 0 9 e q - @./.N.B././.B.1.- - 0 q 9 q j G.N n q (.",
".Xi M m Y.m e e 9 e u q = 1 l 8 t z t & < 9 9 e 0 y V H.j ] k _.",
"OX..M e q.o.i * r y u u : 1 E e.r.u.w 0 - 0 0 - q 0 o.9.@ @ B ].",
"  0.+ O X.q.b - q u y 0 * * a l.F.m - y q 0 9 0 i u 4.L . @ ,.  ",
"  {., O 9 Y...y i y e y q < , F } 9 y q y q $ 0 i [ J.N j < W.  ",
"  OXX.e X.o.U.b q e - 0 0 i q 0 = - q q 9 9 - y N g.J u m ' ^.  ",
"    {.i i * 0.5.b 0 - 9 w q u w q , - e * y e m ,.:.$ . < k.    ",
"    XX6.@ . - q.5.n q q * % q y u u q w 0 q k ,.3.g $ @ %.D.    ",
"       XZ + j N ,.G.P u w 9 u q q 0 = u j [ y.=.1 @.r v F.      ",
"        ).M m u $ [ H.4.{ m m i i u z [ <.u.K $ + * x x.        ",
"          /.B # . $ N [ 4.g.i.3.3.y.y.3.H p ] $ @ c c.          ",
"            _.*.- 0 +.$ o - l ` ` z v - . * m 1 Y v.            ",
"              [.K.} q o . . q g ` j [ q @ ; G Q b.              ",
"                  ^.k.=.c 8 p 8 p 8 s c T ( b.                  ",
"                        F.C.z.d.d.d._ _                         "
};
