<?xml version="1.0" standalone="no"?>
<!DOCTYPE svg PUBLIC "-//W3C//DTD SVG 20010904//EN"
 "http://www.w3.org/TR/2001/REC-SVG-20010904/DTD/svg10.dtd">
<svg version="1.0" xmlns="http://www.w3.org/2000/svg"
 width="1024.000000pt" height="1024.000000pt" viewBox="0 0 1024.000000 1024.000000"
 preserveAspectRatio="xMidYMid meet">

<g transform="translate(0.000000,1024.000000) scale(0.100000,-0.100000)"
fill="#000000" stroke="none">
<path d="M4801 9910 c-589 -46 -1087 -168 -1606 -393 -100 -43 -342 -164 -413
-206 -29 -17 -54 -31 -56 -31 -8 0 -146 -86 -260 -162 -986 -655 -1701 -1655
-1997 -2793 -150 -578 -191 -1186 -119 -1786 165 -1383 928 -2624 2098 -3412
295 -199 591 -353 952 -498 97 -38 371 -126 510 -162 446 -118 978 -173 1421
-149 376 21 676 66 1004 152 380 99 790 264 1110 445 22 12 56 32 75 43 75 42
209 127 300 190 642 442 1146 1000 1520 1682 289 526 478 1130 552 1761 32
281 32 767 0 1048 -129 1106 -605 2096 -1382 2871 -781 781 -1786 1262 -2880
1381 -212 23 -649 33 -829 19z m315 -134 c64 -30 94 -70 94 -126 0 -52 -22
-96 -61 -119 l-30 -19 42 -23 c51 -29 79 -78 79 -139 0 -69 -33 -118 -104
-155 -57 -29 -66 -30 -207 -34 l-147 -3 -6 153 c-3 85 -7 226 -9 314 l-2 160
45 6 c25 3 92 7 150 7 91 2 112 -1 156 -22z m492 1 l74 -12 50 -130 c28 -72
65 -176 83 -233 l32 -103 12 113 c6 62 19 160 28 216 l16 104 46 -7 c83 -11
84 -12 78 -59 -23 -163 -78 -526 -83 -550 -6 -26 -9 -28 -43 -22 -20 3 -47 6
-61 6 -14 0 -31 4 -38 9 -15 9 -90 201 -141 361 -19 58 -37 112 -39 120 -4 10
-7 6 -9 -10 -1 -14 -15 -117 -30 -228 l-28 -204 -65 7 c-36 4 -66 8 -66 8 -1
1 11 88 27 192 15 105 36 245 46 313 10 67 22 122 28 121 5 0 43 -6 83 -12z
m-1127 -72 c7 -30 10 -57 7 -60 -3 -3 -56 -15 -119 -28 -63 -13 -114 -27 -114
-32 2 -49 19 -115 30 -115 7 0 56 9 110 20 53 11 101 18 105 15 7 -4 20 -68
21 -100 0 -5 -48 -19 -106 -31 -58 -12 -107 -23 -110 -26 -9 -8 18 -138 29
-138 6 0 62 9 124 21 68 13 117 18 123 12 5 -5 10 -31 11 -58 l3 -49 -190 -37
c-104 -20 -193 -35 -197 -33 -3 2 -9 23 -13 47 -3 23 -19 110 -35 192 -16 83
-39 199 -51 259 -11 59 -17 112 -12 116 4 5 51 16 103 25 52 9 131 24 175 34
44 10 83 19 87 20 4 0 12 -24 19 -54z m-643 -133 c12 -40 12 -39 -58 -307 -17
-66 -38 -142 -46 -169 -7 -27 -14 -53 -14 -58 0 -4 37 6 83 23 140 51 198 71
200 68 14 -23 36 -104 30 -109 -5 -4 -28 -14 -53 -23 -25 -8 -120 -43 -212
-76 -92 -34 -174 -61 -181 -61 -8 0 -18 15 -24 34 -8 27 -5 53 19 142 15 60
44 168 63 241 19 72 37 138 41 146 4 11 -24 5 -108 -25 -62 -22 -121 -41 -131
-42 -13 -1 -24 13 -38 48 -10 28 -17 51 -16 52 2 2 79 30 172 64 94 34 186 67
205 75 51 20 56 19 68 -23z m2813 -50 c7 -8 -10 -644 -17 -651 -3 -3 -36 6
-75 19 l-71 25 4 84 3 85 -80 28 c-44 15 -82 28 -85 28 -3 0 -25 -29 -49 -65
-24 -36 -49 -65 -56 -65 -6 0 -39 9 -73 21 l-62 21 33 46 c33 45 205 281 309
424 l49 67 82 -30 c45 -17 85 -33 88 -37z m715 -425 l-23 -108 51 -32 c28 -18
74 -46 101 -62 l50 -30 -114 -12 c-63 -6 -117 -17 -121 -23 -4 -7 -18 -59 -30
-116 -13 -58 -26 -101 -30 -97 -4 4 -26 54 -50 111 -33 79 -46 102 -59 98 -9
-3 -54 -7 -101 -11 -47 -4 -94 -9 -105 -11 -22 -6 3 20 108 111 l57 50 -45
104 c-25 57 -44 105 -42 107 2 2 45 -21 96 -51 51 -30 97 -55 102 -55 5 0 46
33 91 74 46 41 84 71 86 67 1 -4 -8 -55 -22 -114z m-4690 -115 c40 -34 76 -62
81 -62 5 0 52 27 103 59 52 33 96 58 97 57 2 -1 -18 -51 -43 -110 -25 -60 -42
-112 -37 -116 4 -4 42 -36 83 -70 41 -35 80 -67 85 -73 9 -8 -67 -5 -186 9
l-46 5 -43 -103 c-24 -57 -47 -107 -50 -111 -4 -4 -18 43 -31 105 l-25 113
-80 8 c-43 4 -97 11 -119 15 l-39 7 74 44 c41 25 87 53 101 63 l27 18 -29 112
c-16 62 -29 115 -29 117 0 5 12 -5 106 -87z m2814 47 c523 -49 1060 -215 1520
-469 633 -350 1169 -878 1525 -1505 265 -465 417 -934 491 -1510 21 -164 24
-645 5 -815 -89 -792 -363 -1460 -854 -2079 -118 -149 -430 -464 -572 -577
-277 -221 -457 -337 -765 -490 -408 -203 -923 -347 -1374 -384 -164 -13 -525
-13 -692 0 -355 28 -802 136 -1139 275 -1165 481 -2029 1478 -2332 2690 -87
351 -119 652 -110 1055 10 422 64 740 193 1129 333 1003 1052 1827 1999 2293
410 201 779 311 1275 379 200 27 588 31 830 8z m2699 -661 c26 -29 61 -68 77
-86 l30 -34 103 47 c57 25 105 44 107 42 3 -2 -20 -46 -51 -98 -30 -52 -55
-97 -55 -101 0 -4 33 -45 74 -90 41 -45 73 -84 71 -86 -4 -4 -48 5 -163 32
l-62 14 -58 -99 c-31 -54 -60 -99 -63 -99 -3 0 -10 49 -16 110 -5 60 -12 112
-14 115 -3 3 -50 14 -105 26 -54 12 -106 23 -114 26 -13 4 51 35 175 87 l31
13 -11 117 c-6 64 -9 116 -7 116 2 0 25 -24 51 -52z m-6309 -249 c-17 -144
-17 -145 36 -168 25 -11 72 -31 104 -43 33 -13 60 -26 60 -29 0 -3 -46 -16
-102 -28 -57 -13 -108 -24 -114 -26 -10 -3 -32 -202 -26 -227 1 -5 -2 -8 -6
-8 -5 0 -34 45 -66 100 -55 93 -60 99 -85 94 -14 -3 -60 -15 -103 -25 -42 -10
-82 -19 -88 -19 -14 0 4 24 83 113 l57 65 -59 98 c-33 54 -59 100 -57 101 3 3
68 -23 178 -71 l37 -16 77 90 c43 49 79 88 81 87 1 -2 -2 -41 -7 -88z m7170
-901 c33 -78 26 -75 173 -57 49 6 90 9 92 7 2 -1 -35 -36 -81 -77 -46 -41 -84
-79 -84 -85 0 -6 20 -56 45 -110 25 -55 44 -101 42 -102 -1 -1 -47 24 -103 55
l-101 58 -39 -35 c-21 -18 -60 -54 -86 -78 -26 -24 -49 -44 -51 -44 -3 0 6 48
19 108 13 59 23 112 24 117 0 6 -45 35 -100 65 -55 30 -100 58 -100 61 0 4 37
10 83 14 141 11 150 15 159 60 5 22 16 74 25 115 l16 75 19 -40 c10 -22 31
-70 48 -107z m-7920 -190 c7 -35 18 -85 24 -113 l12 -50 115 -12 c63 -6 116
-12 119 -13 3 0 -41 -28 -97 -61 -57 -33 -103 -65 -103 -72 0 -7 11 -57 24
-112 14 -55 23 -102 20 -104 -2 -2 -42 31 -89 74 l-85 77 -103 -60 c-56 -33
-103 -59 -105 -57 -1 1 20 50 47 108 l49 106 -81 73 c-45 39 -86 76 -92 81 -9
8 69 5 186 -9 l46 -5 44 105 c24 58 47 106 50 106 4 0 12 -28 19 -62z m8354
-1020 c4 -46 10 -98 14 -117 l8 -35 109 -23 c60 -13 110 -25 112 -26 1 -2 -44
-25 -102 -52 -119 -55 -111 -38 -91 -187 7 -54 9 -98 5 -98 -4 0 -9 4 -11 9
-6 15 -141 161 -149 161 -5 0 -52 -20 -105 -45 -100 -47 -124 -54 -106 -32 5
6 33 52 61 101 l51 89 -81 88 c-44 49 -76 89 -71 89 5 0 54 -9 107 -20 53 -11
102 -20 109 -20 6 0 36 45 66 100 30 55 58 100 61 100 3 0 9 -37 13 -82z
m-8646 -408 c4 1 55 11 115 24 59 13 107 21 107 19 0 -3 -33 -40 -72 -84 -40
-44 -74 -84 -76 -89 -2 -5 22 -53 53 -106 31 -52 55 -97 53 -99 -2 -2 -46 16
-98 40 -52 24 -102 44 -110 44 -8 0 -48 -39 -89 -85 -41 -47 -75 -83 -76 -82
-1 2 1 35 5 73 5 39 10 91 13 117 l4 47 -110 48 -110 48 104 23 c57 13 111 27
119 31 11 6 18 40 27 117 6 60 12 111 13 114 0 3 28 -41 61 -97 33 -57 63
-103 67 -103z m8702 -952 c-35 -164 -44 -139 76 -205 58 -31 101 -59 96 -61
-6 -2 -59 -8 -118 -15 l-109 -12 -21 -105 c-11 -58 -22 -111 -25 -118 -2 -7
-27 35 -54 94 l-49 106 -50 -6 c-28 -3 -82 -9 -120 -13 l-69 -6 86 82 85 82
-49 106 c-27 58 -49 107 -49 109 0 4 12 -3 140 -75 l68 -39 84 79 c45 43 86
78 89 79 3 0 -2 -37 -11 -82z m-8717 -296 l69 -63 56 32 c125 71 144 80 147
77 2 -2 -17 -46 -41 -98 -24 -52 -44 -100 -44 -107 0 -6 39 -48 88 -93 84 -79
86 -81 52 -76 -93 15 -201 26 -208 22 -4 -2 -28 -50 -52 -105 -25 -56 -47
-101 -51 -101 -3 0 -9 20 -12 44 -4 25 -14 76 -22 114 l-16 70 -115 12 c-62 7
-114 15 -114 19 0 3 45 30 100 60 55 29 100 57 100 60 0 4 -9 47 -20 97 -11
49 -20 97 -20 108 0 23 5 19 103 -72z m8104 -952 c41 -44 79 -80 84 -80 5 0
53 20 106 45 53 25 98 43 100 41 2 -2 -21 -48 -51 -102 l-54 -99 87 -88 c77
-80 83 -88 56 -83 -94 19 -207 36 -213 32 -4 -2 -29 -47 -57 -100 -27 -53 -53
-96 -56 -96 -3 0 -11 50 -19 111 -15 129 -4 118 -155 145 l-100 17 97 48 c54
26 103 49 109 51 9 3 9 33 -2 121 -8 64 -13 117 -11 117 2 0 37 -36 79 -80z
m-7431 -286 c-13 -104 -9 -134 14 -134 5 0 47 -19 95 -42 55 -26 82 -44 73
-48 -7 -4 -57 -15 -111 -25 -59 -10 -100 -22 -104 -30 -2 -8 -10 -62 -17 -121
-13 -120 -12 -120 -66 -14 -13 25 -33 61 -46 81 l-23 37 -113 -23 c-62 -13
-114 -22 -115 -21 -1 1 34 41 78 89 l80 86 -42 78 c-23 43 -48 87 -56 98 -7
11 -13 23 -13 27 0 4 48 -16 108 -43 l107 -51 79 86 c44 48 81 85 82 83 2 -2
-2 -53 -10 -113z m6733 -791 l49 -100 114 17 c62 10 115 16 117 14 2 -2 -33
-38 -78 -80 -44 -42 -81 -80 -81 -86 0 -5 22 -54 49 -108 27 -55 46 -100 42
-100 -4 0 -49 23 -101 50 -52 28 -97 50 -100 50 -4 0 -45 -36 -91 -79 -46 -44
-85 -78 -85 -78 -1 1 7 49 17 107 10 58 19 110 19 117 0 6 -46 35 -102 64
-118 60 -119 58 42 80 89 12 90 12 95 43 22 134 27 163 31 179 3 10 8 17 10
15 2 -2 26 -49 53 -105z m-5959 -170 c25 -153 22 -147 60 -155 19 -4 72 -10
118 -14 45 -4 82 -10 82 -13 0 -3 -44 -29 -98 -58 l-97 -51 2 -49 c1 -27 8
-80 16 -118 8 -39 13 -72 11 -74 -1 -2 -13 8 -26 21 -13 14 -51 51 -85 83
l-62 57 -107 -57 c-58 -32 -105 -53 -103 -49 2 5 26 54 52 109 l48 99 -84 83
c-46 46 -79 83 -73 83 19 0 179 -20 202 -25 19 -4 28 9 70 100 27 58 52 105
55 105 3 0 12 -35 19 -77z m4968 -648 l17 -100 95 -16 c52 -9 104 -18 115 -21
14 -3 -9 -19 -82 -56 -117 -59 -111 -46 -88 -187 8 -49 15 -94 15 -100 0 -5
-39 29 -87 77 l-88 87 -102 -53 c-57 -29 -103 -51 -103 -50 0 2 24 51 52 109
l53 105 -85 86 c-66 66 -79 84 -60 80 40 -9 214 -36 216 -33 1 1 26 49 55 107
36 71 54 98 57 85 2 -11 11 -65 20 -120z m-3919 -100 c40 -79 58 -104 70 -101
30 9 204 37 207 33 2 -2 -31 -41 -74 -87 l-78 -84 54 -99 c29 -54 51 -101 49
-103 -2 -3 -50 19 -107 47 l-103 51 -77 -83 c-43 -46 -80 -82 -83 -79 -4 3 0
48 8 100 8 52 15 103 15 112 0 12 -32 33 -107 70 -70 34 -101 53 -88 56 11 1
65 11 120 20 l100 17 14 118 c8 64 17 117 20 117 3 0 30 -47 60 -105z m2794
-297 c7 -38 85 -385 92 -409 4 -12 -7 -18 -46 -27 -28 -7 -54 -12 -58 -12 -7
0 -65 65 -241 270 -18 21 -21 22 -15 5 17 -53 74 -309 69 -316 -5 -9 -83 -23
-90 -16 -3 3 -12 34 -19 69 -8 34 -30 135 -49 222 -20 87 -36 162 -36 166 0 4
19 10 43 14 23 4 51 9 62 12 19 4 39 -16 239 -251 l26 -30 -14 35 c-21 54 -70
279 -63 287 8 7 79 21 88 16 4 -1 9 -17 12 -35z m-1243 -78 c63 -5 123 -10
133 -10 12 0 17 -8 17 -31 0 -25 -23 -59 -117 -172 -64 -78 -120 -147 -125
-154 -6 -8 15 -13 79 -18 134 -9 133 -9 133 -55 0 -21 -3 -41 -8 -44 -4 -2
-88 3 -187 12 l-180 17 3 30 c3 20 41 75 120 170 63 77 119 145 124 152 10 13
-11 18 -124 28 l-68 7 0 37 c0 47 5 52 49 46 20 -3 88 -10 151 -15z m590 -13
c80 -28 102 -125 40 -178 l-31 -26 32 -13 c65 -27 87 -109 46 -171 -36 -55
-100 -80 -221 -86 l-104 -6 -7 119 c-3 66 -10 172 -13 237 -7 113 -7 118 13
122 74 16 200 17 245 2z"/>
<path d="M4917 9693 c-4 -3 -7 -37 -7 -75 l0 -68 46 0 c51 0 101 24 110 53 10
32 -5 66 -36 82 -29 15 -101 21 -113 8z"/>
<path d="M4915 9358 c4 -46 9 -86 11 -90 4 -6 49 -3 102 8 49 10 76 67 56 119
-10 26 -60 45 -120 45 l-57 0 8 -82z"/>
<path d="M6462 9356 c-34 -52 -65 -101 -68 -109 -3 -10 12 -20 55 -34 l60 -19
5 50 c6 62 15 206 13 206 -1 0 -30 -43 -65 -94z"/>
<path d="M4895 8719 c-875 -56 -1682 -417 -2306 -1031 -573 -564 -926 -1262
-1045 -2063 -35 -231 -44 -628 -20 -850 51 -481 164 -869 370 -1280 314 -623
807 -1148 1406 -1497 1185 -692 2666 -650 3805 106 773 513 1320 1299 1528
2196 192 827 87 1691 -298 2450 -374 735 -1000 1330 -1755 1666 -392 174 -804
274 -1255 303 -175 12 -249 12 -430 0z m620 -153 c394 -46 793 -165 1148 -343
1054 -528 1766 -1539 1904 -2703 23 -197 24 -611 1 -805 -137 -1141 -820
-2135 -1838 -2673 -711 -376 -1556 -492 -2345 -321 -650 142 -1235 461 -1711
934 -554 550 -889 1222 -1001 2005 -25 180 -25 730 0 910 94 652 331 1203 746
1730 102 129 402 427 536 531 332 259 636 426 1025 565 280 100 580 159 945
188 97 8 462 -4 590 -18z"/>
<path d="M4915 8518 c-71 -4 -135 -10 -142 -12 -10 -4 -13 -39 -13 -143 l0
-137 -95 -92 -95 -91 0 -197 0 -198 -130 -131 c-71 -73 -133 -135 -137 -139
-5 -4 -33 -29 -63 -57 -30 -28 -64 -51 -75 -51 -13 0 40 60 173 193 l192 193
0 200 0 199 95 95 95 95 0 129 0 129 -61 -7 c-95 -11 -89 -2 -89 -140 l0 -121
-100 -100 -100 -100 0 -195 0 -195 -188 -188 c-141 -140 -194 -187 -213 -187
-19 0 11 35 169 193 l192 192 0 195 0 195 100 100 100 100 0 112 c0 90 -3 113
-14 113 -57 0 -353 -76 -513 -131 -185 -64 -201 -74 -310 -182 l-103 -102 0
-122 c0 -118 1 -122 25 -141 49 -39 20 -122 -42 -122 -41 0 -75 52 -61 92 6
16 17 32 24 35 11 4 14 35 14 142 l0 137 60 59 c33 32 58 61 56 63 -5 5 -90
-38 -228 -116 l-118 -67 0 -506 0 -507 65 -67 c36 -36 65 -70 65 -75 0 -30
-31 -14 -96 51 l-74 73 0 498 c0 274 -2 498 -5 498 -3 0 -37 -21 -75 -46 l-70
-47 0 -442 0 -442 95 -96 95 -97 0 -64 c0 -49 -5 -69 -20 -87 l-19 -24 -1 80
0 80 -95 95 -95 95 0 432 c0 238 -2 433 -5 433 -3 0 -30 -19 -60 -42 -43 -34
-55 -49 -55 -71 0 -17 -10 -37 -25 -51 l-25 -23 0 -464 0 -464 94 -94 c73 -73
98 -92 113 -87 13 4 30 -1 46 -15 l27 -21 -32 -45 c-18 -25 -39 -48 -46 -50
-21 -9 -52 28 -52 61 0 26 -16 47 -95 126 l-95 95 0 482 c0 397 -2 483 -13
483 -15 0 -301 -288 -354 -356 -22 -28 -29 -44 -22 -55 14 -23 10 -48 -11 -69
-19 -19 -20 -33 -20 -201 0 -166 2 -183 20 -206 27 -35 25 -54 -8 -86 -30 -29
-50 -29 -84 1 -24 21 -23 74 2 97 19 17 20 31 20 197 0 98 -3 178 -7 178 -12
-1 -93 -118 -93 -133 0 -8 -11 -24 -25 -37 -25 -23 -25 -24 -25 -209 l0 -186
188 -188 187 -187 81 0 c68 0 84 3 99 20 25 28 81 27 106 -2 26 -32 24 -55 -7
-83 -33 -30 -53 -31 -87 -5 -21 16 -40 20 -109 20 l-83 0 -207 208 -208 207
-2 155 -3 155 -51 -90 c-28 -49 -65 -115 -82 -146 l-30 -56 299 -299 300 -299
-2 -89 c-1 -72 2 -92 14 -101 44 -32 36 -95 -15 -116 -25 -10 -33 -9 -56 8
-39 29 -43 84 -8 107 24 15 26 22 26 99 l0 83 -287 285 -286 284 -33 -70 c-18
-38 -33 -73 -34 -77 0 -5 18 -8 39 -8 38 0 47 -8 240 -201 128 -128 201 -209
202 -222 1 -12 2 -51 3 -87 1 -52 6 -72 24 -94 12 -16 22 -37 22 -46 0 -19
-53 -70 -74 -70 -52 0 -79 84 -39 122 20 19 23 31 23 102 l0 81 -191 191 -190
190 -42 -5 -42 -6 -57 -170 c-32 -93 -58 -178 -58 -187 0 -28 52 -23 80 7 32
34 63 32 94 -6 33 -39 32 -44 -3 -80 -36 -36 -60 -37 -91 -4 -17 18 -34 25
-61 25 l-37 0 -18 -82 -19 -83 178 -3 c178 -2 179 -2 209 23 36 30 48 31 82 4
32 -25 34 -66 6 -97 -28 -30 -73 -29 -98 3 l-20 25 -180 0 c-100 0 -183 -4
-186 -9 -3 -4 -8 -34 -12 -65 l-7 -56 191 0 c190 0 191 0 216 25 30 30 65 32
94 5 31 -29 29 -73 -4 -99 -35 -27 -57 -26 -85 4 -24 25 -24 25 -220 25 l-196
0 -7 -31 c-3 -17 -6 -43 -6 -58 l0 -26 297 2 297 2 96 96 95 95 171 0 c158 0
172 -1 189 -20 18 -20 17 -20 -166 -20 l-184 0 -95 -95 -95 -95 -306 0 -307 0
-4 -51 c-1 -28 -1 -53 1 -55 2 -2 165 -4 360 -4 l356 0 95 95 95 95 180 0
c169 0 181 -1 193 -20 12 -20 10 -20 -171 -20 l-182 0 -95 -95 -95 -95 -372 0
-373 0 0 -174 c0 -137 3 -175 14 -179 8 -3 51 33 107 89 l94 94 479 0 479 0
23 25 c30 32 73 33 102 2 28 -30 28 -58 -1 -85 -29 -27 -68 -28 -92 -2 -18 19
-31 20 -495 20 l-478 0 -86 -82 c-82 -78 -86 -84 -86 -125 0 -34 -5 -46 -23
-58 -24 -15 -25 -23 -11 -112 l5 -33 207 0 207 0 95 95 95 95 386 0 387 0 16
25 c20 31 81 35 102 8 19 -25 17 -67 -4 -93 -15 -19 -25 -22 -54 -16 -19 3
-43 15 -53 26 -17 19 -32 20 -387 20 l-369 0 -103 -100 -103 -100 -205 0
c-112 0 -207 -2 -210 -5 -3 -4 -2 -23 2 -43 4 -20 11 -54 14 -74 l7 -38 192 0
192 0 98 100 99 100 284 0 283 0 25 25 c31 31 72 32 97 3 44 -53 4 -116 -69
-109 -6 0 -21 10 -32 21 -18 18 -35 19 -296 20 l-276 1 -103 -100 -104 -101
-190 0 c-105 0 -191 -3 -191 -7 0 -22 64 -254 99 -362 44 -134 113 -311 121
-311 3 0 4 36 2 81 -3 63 -8 85 -23 100 -55 55 12 140 78 99 42 -25 48 -66 16
-98 -24 -24 -25 -28 -24 -161 l2 -135 52 -100 52 -99 3 137 c3 137 2 138 -23
162 -32 29 -32 58 0 89 30 30 54 31 89 4 34 -27 35 -70 1 -97 -25 -20 -25 -20
-25 -194 0 -173 0 -175 25 -198 14 -13 25 -31 25 -40 0 -19 56 -110 68 -110 5
0 19 11 32 25 23 24 27 25 160 25 133 0 137 1 160 25 30 32 66 30 93 -7 13
-18 18 -34 13 -51 -15 -60 -69 -75 -113 -31 -26 26 -28 26 -149 22 -116 -3
-125 -4 -148 -28 l-25 -25 67 -86 c37 -48 94 -118 127 -157 55 -65 61 -69 79
-56 11 8 34 14 51 14 26 0 101 71 638 608 l607 607 0 125 1 125 19 -24 c17
-20 20 -39 20 -135 l0 -111 -615 -615 c-553 -553 -615 -618 -610 -641 4 -18 0
-31 -15 -44 l-20 -19 31 -32 31 -32 22 23 c33 37 59 39 95 9 38 -32 39 -57 4
-93 l-28 -27 106 -88 c58 -49 113 -93 122 -98 16 -8 17 12 17 245 l0 254 -25
23 c-47 44 -24 120 36 120 66 0 97 -81 44 -116 l-25 -16 0 -273 0 -273 74 -51
c41 -28 77 -51 80 -51 3 0 6 100 6 223 l0 224 -25 23 c-38 35 -33 73 11 101
34 20 39 21 63 8 14 -8 30 -27 35 -41 8 -22 5 -33 -17 -62 l-27 -35 2 -238 3
-238 110 -63 110 -63 5 76 5 75 207 207 c185 186 206 211 201 235 -11 56 73
92 117 48 32 -32 26 -76 -12 -100 -18 -11 -40 -18 -48 -15 -10 3 -88 -68 -223
-203 l-208 -208 3 -70 3 -69 88 -42 c116 -56 137 -62 137 -34 0 47 76 64 114
25 19 -18 21 -65 4 -82 -11 -11 -6 -14 59 -37 9 -3 13 28 15 113 3 115 3 117
-24 148 -34 38 -35 55 -5 88 35 39 61 41 91 9 33 -35 33 -63 1 -93 -24 -23
-25 -28 -25 -152 0 -124 1 -129 23 -138 44 -19 240 -70 248 -64 5 3 9 94 9
202 l0 197 100 100 100 100 0 180 c0 179 -1 180 -25 204 -44 41 -28 102 32
117 56 14 102 -82 54 -114 -20 -14 -21 -22 -21 -206 l0 -191 -100 -100 -99
-99 -3 -203 -3 -203 53 -11 c51 -12 53 -12 82 16 l30 29 0 196 0 195 95 95 95
95 0 182 c0 181 0 182 -25 207 -33 33 -32 69 1 95 39 31 71 27 94 -11 26 -43
25 -60 -5 -88 -25 -23 -25 -24 -25 -214 l0 -190 -95 -92 -95 -93 0 -193 c0
-176 -2 -195 -20 -218 -11 -14 -20 -28 -20 -31 0 -3 26 -9 57 -13 55 -6 57 -6
95 31 l38 37 0 196 0 195 108 108 107 107 95 0 94 0 197 195 196 195 94 0 94
0 183 183 c143 143 182 188 182 208 0 38 36 79 69 79 37 0 61 -28 61 -71 0
-28 -6 -38 -30 -52 -17 -10 -38 -16 -48 -13 -14 5 -65 -40 -208 -184 l-189
-190 -96 0 -96 0 -196 -195 -195 -195 -99 0 -98 0 -93 -93 -92 -92 0 -195 0
-194 -36 -37 -35 -36 56 -7 c31 -3 61 -4 66 -1 5 4 9 91 9 199 l0 192 104 103
104 102 94 -2 93 -2 87 83 c78 74 87 87 90 123 6 75 83 101 122 42 29 -44 -2
-95 -57 -95 -33 0 -79 -38 -175 -143 l-42 -47 -103 0 -102 0 -87 -92 -88 -93
3 -190 2 -190 123 -3 122 -3 0 162 c0 157 -1 162 -25 191 -33 39 -32 61 6 92
37 31 36 31 77 6 26 -16 32 -26 32 -55 0 -26 -6 -39 -25 -51 -25 -16 -25 -16
-25 -180 l0 -164 95 0 95 0 0 108 0 107 205 205 c178 178 205 209 205 236 0
37 36 74 72 74 31 0 68 -41 68 -76 0 -29 -47 -67 -75 -60 -16 4 -61 -36 -222
-197 l-203 -202 0 -92 c0 -109 -17 -101 164 -78 135 17 115 4 288 178 l106
107 187 0 c185 0 187 0 217 25 16 14 40 25 53 25 25 0 65 -42 65 -67 0 -19 17
-13 140 48 93 45 100 51 100 78 0 37 45 73 79 64 18 -4 40 12 118 91 l95 96
77 0 76 0 65 52 c155 124 334 293 461 438 63 72 212 260 206 260 -1 0 -137
-135 -302 -300 l-300 -300 -286 0 c-273 0 -287 -1 -304 -20 -26 -29 -69 -26
-94 6 -27 34 -26 56 2 81 36 33 54 34 86 7 l30 -25 282 0 283 0 283 283 283
283 0 376 0 375 -25 22 c-40 35 -32 83 18 108 28 15 32 15 56 -4 14 -10 30
-31 35 -45 8 -23 6 -31 -17 -55 l-27 -28 2 -379 3 -380 35 54 c25 41 33 63 31
90 -2 27 3 42 18 55 20 18 21 30 21 195 0 164 -1 178 -20 194 -28 24 -27 81 2
101 32 22 61 20 86 -7 33 -35 24 -107 -14 -107 -12 0 -15 -24 -14 -165 1 -91
5 -165 9 -165 10 0 172 318 216 425 44 106 95 249 95 264 0 6 -8 11 -17 11 -9
0 -26 9 -38 20 -18 17 -36 19 -194 20 -162 2 -174 1 -195 -19 -30 -28 -80 -28
-100 1 -35 50 -8 108 50 108 31 -1 64 -20 64 -39 0 -8 50 -11 173 -11 173 0
174 0 198 26 19 20 32 25 63 22 38 -2 39 -2 52 42 8 25 14 48 14 53 0 4 -68 7
-151 7 -147 0 -152 -1 -181 -25 -36 -30 -57 -31 -92 -4 -45 35 -25 100 36 115
21 4 33 0 53 -20 26 -26 27 -26 185 -26 142 0 159 2 164 18 6 22 46 230 46
243 0 5 -59 9 -141 9 l-142 0 -99 -98 -99 -97 -577 -3 c-544 -2 -578 -4 -597
-21 -30 -27 -47 -30 -78 -12 -59 34 -42 113 26 119 31 3 42 -2 58 -22 l20 -26
567 0 567 0 100 100 100 100 151 0 151 0 7 71 c4 39 6 72 4 74 -2 2 -69 5
-150 6 l-147 2 -104 -99 -103 -99 -464 5 c-300 3 -470 1 -481 -5 -9 -5 -27
-18 -41 -28 -35 -24 -82 -7 -97 35 -25 70 62 119 111 63 l22 -25 473 0 474 0
91 95 91 95 168 0 169 0 0 58 c0 31 3 81 6 110 l7 52 -375 0 -374 0 -88 -87
c-79 -79 -87 -91 -84 -121 2 -26 -3 -39 -21 -53 -31 -26 -57 -24 -86 6 -31 30
-31 54 -4 90 17 20 28 26 50 23 24 -4 40 8 121 89 l93 93 378 0 c320 0 378 2
383 14 6 17 -14 337 -22 345 -2 3 -48 -39 -102 -92 l-97 -97 -598 0 c-595 0
-597 0 -585 20 13 20 24 20 587 20 l573 0 96 95 c52 52 101 95 109 95 14 0 18
47 7 88 -6 20 -13 22 -68 22 l-61 0 -95 -95 -95 -95 -474 0 c-473 0 -474 0
-456 20 18 19 31 20 469 20 l451 0 95 95 95 95 62 0 c56 0 63 2 63 20 0 11 -6
20 -14 20 -7 0 -25 9 -40 21 -35 27 -35 72 -1 102 l25 22 -20 82 c-11 46 -26
97 -33 115 -13 30 -175 199 -424 441 l-100 97 -176 0 c-173 0 -176 0 -205 -25
-34 -29 -58 -31 -90 -9 -28 19 -30 74 -4 97 28 25 74 21 102 -8 l24 -26 185 1
184 2 240 -239 c132 -131 237 -231 235 -223 -60 187 -65 195 -190 322 l-118
120 0 123 0 124 -53 83 c-28 46 -72 112 -97 148 l-45 65 -3 -133 c-3 -130 -2
-134 23 -163 31 -38 31 -53 0 -84 -30 -30 -54 -31 -89 -4 -33 26 -34 63 -1 93
24 23 25 27 25 159 0 80 4 138 10 142 17 10 12 20 -44 90 l-53 67 -67 1 -67 1
-89 -89 -90 -90 0 -194 0 -194 -147 -148 c-80 -82 -150 -146 -155 -143 -20 12
0 38 127 167 l135 138 0 192 0 192 103 105 102 105 53 -2 c58 -3 63 3 29 35
-19 18 -35 22 -94 22 l-72 0 -90 -92 -91 -93 0 -193 0 -192 -133 -135 c-73
-74 -138 -135 -144 -135 -34 0 -7 38 109 154 l128 128 0 196 0 195 103 103
102 104 58 0 c31 0 57 4 57 8 0 16 -46 52 -67 52 -24 0 -53 30 -53 56 0 16
-138 154 -154 154 -3 0 -6 -66 -6 -146 l0 -147 -96 -98 -96 -98 1 -191 2 -191
-82 -85 c-66 -67 -85 -81 -96 -72 -12 9 0 25 61 87 l76 76 0 196 0 195 95 94
95 95 0 161 0 162 -55 47 -55 47 -20 -24 c-18 -21 -19 -40 -20 -211 l0 -188
-100 -103 -100 -103 0 -187 c0 -176 -1 -190 -21 -218 -19 -27 -23 -28 -37 -15
-13 14 -13 17 2 32 14 14 16 44 16 212 l0 195 100 101 100 101 0 174 c0 171 0
175 -25 204 -26 30 -33 76 -15 94 7 7 0 18 -21 33 l-31 23 -80 -78 c-64 -65
-78 -83 -73 -102 7 -27 -42 -82 -72 -82 -27 0 -63 41 -63 71 0 33 41 72 72 68
27 -4 49 12 126 92 l52 55 -40 23 c-53 29 -80 17 -78 -36 1 -27 -5 -41 -21
-55 -49 -39 -111 -12 -111 50 0 37 34 64 83 66 20 1 33 7 35 17 2 11 -46 41
-178 108 -99 51 -180 89 -180 86 0 -4 23 -28 52 -53 34 -31 58 -46 73 -44 13
2 35 -7 50 -21 23 -19 27 -29 21 -51 -10 -42 -38 -64 -75 -58 -38 5 -61 35
-61 79 0 19 -7 37 -18 45 -9 7 -28 27 -42 43 -54 66 -111 107 -185 135 -60 23
-77 26 -81 15 -3 -8 -19 -17 -35 -20 -37 -8 -76 15 -81 47 -2 19 -16 27 -83
46 -114 32 -353 79 -471 92 l-101 11 -147 -146 -148 -145 -95 0 -96 0 -93 -92
-94 -92 0 -194 0 -195 -187 -188 c-145 -147 -193 -189 -212 -189 -22 0 4 30
167 193 l192 192 0 196 0 195 106 107 107 107 96 0 96 0 128 127 c70 69 127
127 127 128 0 2 -57 5 -127 7 l-128 4 -37 -29 c-32 -25 -36 -33 -31 -61 4 -27
0 -37 -22 -54 -33 -26 -53 -27 -83 -6 -16 11 -22 25 -22 51 0 42 21 62 66 63
27 0 66 25 53 33 -2 1 -62 -1 -134 -5z m590 -104 c30 -33 31 -44 4 -78 -15
-19 -30 -26 -54 -26 -30 0 -46 -12 -127 -95 l-93 -95 -101 0 -101 0 -87 -91
-86 -92 0 -192 0 -193 -141 -141 -140 -141 -62 0 c-44 0 -58 3 -47 10 8 5 28
10 45 10 25 0 52 23 167 137 l138 138 0 195 0 196 104 103 104 102 94 -2 93
-2 88 82 c80 76 87 86 87 121 0 30 6 43 26 59 36 28 60 26 89 -5z m629 -164
c113 -114 133 -130 162 -130 59 0 85 -68 42 -107 -36 -31 -45 -34 -72 -21 -26
11 -43 48 -37 77 1 8 -57 74 -131 148 l-133 133 -125 0 -125 0 -127 -127
c-118 -118 -128 -131 -128 -165 0 -27 -6 -41 -22 -52 -47 -33 -108 -7 -108 46
0 43 25 68 69 68 33 0 48 11 166 130 l130 130 155 0 155 0 129 -130z m-271 13
c44 -49 21 -113 -42 -118 -28 -2 -62 -31 -232 -201 l-199 -199 0 -125 c0 -113
2 -127 20 -143 28 -24 27 -81 -2 -101 -60 -42 -128 11 -105 81 4 11 14 24 22
27 12 4 15 31 15 141 l0 136 205 204 c190 189 205 207 205 240 0 63 73 101
113 58z m-1786 -175 c30 -28 29 -59 -2 -88 -24 -23 -25 -27 -25 -159 l0 -136
-205 -205 c-193 -193 -205 -207 -205 -242 0 -64 -60 -89 -105 -43 -47 46 -22
105 44 105 34 0 50 14 234 198 l198 199 0 128 c0 123 -1 129 -25 154 -32 34
-33 55 -1 86 30 31 62 32 92 3z m1097 -89 c34 -27 35 -72 1 -103 -25 -23 -25
-25 -25 -194 0 -169 0 -171 25 -196 33 -33 32 -69 -1 -95 -37 -29 -69 -27 -93
8 -27 38 -26 57 4 87 25 25 25 27 25 196 0 167 0 171 -25 200 -33 39 -32 61 6
92 37 31 49 32 83 5z m1284 -116 c28 -39 2 -96 -50 -109 -21 -4 -33 0 -53 20
l-26 26 -182 0 -182 0 -182 -182 c-149 -149 -183 -188 -183 -210 0 -61 -78
-91 -120 -46 -24 26 -26 56 -4 86 13 19 24 23 55 21 39 -3 42 -1 227 184 l187
187 192 0 192 0 26 26 c21 21 32 25 58 20 18 -3 38 -14 45 -23z m-2534 -24
c35 -28 35 -70 -1 -99 -17 -13 -35 -19 -48 -16 -16 4 -47 -22 -147 -122 -111
-110 -128 -131 -128 -159 0 -33 -29 -63 -61 -63 -30 0 -69 39 -69 70 0 36 49
75 81 65 17 -6 39 12 121 96 135 140 148 156 148 189 0 18 8 35 22 44 30 21
50 20 82 -5z m2678 -126 c22 -20 23 -70 1 -95 -22 -24 -71 -23 -99 2 -20 20
-34 21 -205 21 l-184 0 -182 -185 c-101 -102 -183 -190 -183 -195 0 -14 -35
-14 -60 -1 -13 7 -21 7 -25 0 -10 -15 -45 -12 -45 5 0 19 31 35 72 35 29 0 53
21 222 190 l189 190 188 0 c187 0 188 0 213 25 29 29 71 33 98 8z m157 -159
c28 -36 26 -68 -5 -93 -35 -27 -56 -26 -92 4 -29 25 -33 25 -208 25 l-179 0
-119 -120 c-85 -87 -125 -120 -142 -120 -13 0 -24 1 -24 3 0 2 62 65 138 140
l137 137 187 0 c186 0 187 0 212 25 33 33 69 32 95 -1z m-32 -196 c30 -28 29
-59 -2 -88 -24 -23 -25 -28 -25 -143 l0 -120 -20 26 c-17 21 -20 40 -20 119 0
88 -2 96 -25 118 -31 29 -32 56 -3 87 27 29 65 29 95 1z m-3917 -100 c27 -29
27 -84 0 -100 -19 -12 -20 -24 -20 -303 l0 -291 86 -84 c75 -74 89 -84 117
-82 39 4 64 -14 72 -49 5 -21 0 -34 -22 -58 -26 -29 -30 -31 -60 -21 -32 12
-61 59 -48 80 4 7 -32 51 -89 109 -64 66 -96 106 -97 122 -1 13 0 144 0 290 2
233 0 267 -14 279 -9 8 -22 25 -30 40 -12 24 -11 29 11 58 30 38 64 42 94 10z
m2570 7 c11 -13 -13 -15 -205 -15 -192 0 -216 2 -205 15 10 12 46 15 205 15
159 0 195 -3 205 -15z m-2731 -201 c27 -35 26 -55 -4 -84 -25 -23 -25 -25 -25
-198 0 -171 0 -175 25 -204 30 -36 31 -48 4 -82 -25 -32 -64 -34 -96 -4 -30
28 -30 68 2 98 25 23 25 25 25 197 l0 173 -25 16 c-50 33 -19 114 44 114 20 0
36 -9 50 -26z m3867 -164 c51 -74 92 -140 91 -147 -2 -13 -40 -51 -1437 -1468
l-354 -360 214 -6 c118 -3 360 -8 538 -10 l323 -4 77 95 c401 492 682 851 676
862 -4 7 -57 80 -117 162 l-110 148 179 179 c98 99 182 178 186 177 6 -3 108
-145 489 -680 l19 -26 -143 -175 c-78 -96 -223 -275 -322 -397 -99 -122 -252
-311 -340 -419 -88 -108 -198 -245 -245 -304 l-85 -108 -290 5 c-159 3 -562 9
-895 12 -333 3 -621 8 -640 9 -19 2 -87 4 -152 4 l-116 1 -38 53 c-21 28 -62
85 -92 124 -29 40 -52 77 -50 82 4 12 254 267 1383 1411 187 190 354 360 370
378 l30 33 -775 -6 c-699 -7 -777 -9 -791 -24 -14 -14 -172 -230 -412 -561
-74 -103 -76 -105 -58 -125 31 -34 374 -447 405 -488 l28 -37 -65 -73 c-36
-39 -114 -123 -174 -184 l-108 -113 -150 186 c-82 103 -224 277 -314 388 -90
110 -189 231 -219 268 l-54 68 37 52 c21 29 142 196 269 371 127 175 240 331
251 347 11 16 88 121 170 234 l150 206 1284 -3 1283 -2 94 -135z m1174 -475
c22 -23 30 -25 114 -25 l91 0 200 -200 199 -199 4 -96 c3 -52 8 -95 13 -95 5
0 15 -13 24 -30 14 -27 14 -32 -2 -56 -40 -62 -115 -44 -121 29 -3 29 2 39 22
53 24 15 26 21 26 98 l0 81 -192 190 -193 190 -87 -5 c-72 -4 -90 -9 -111 -28
-23 -22 -26 -23 -61 -8 -20 8 -36 20 -37 25 -4 44 -1 63 16 81 25 28 66 26 95
-5z m-42 -217 c21 -21 14 -78 -10 -99 -31 -25 -45 -24 -85 7 -31 23 -40 25
-128 23 -91 -2 -125 7 -125 32 0 5 53 9 118 9 106 0 118 2 130 20 14 23 80 28
100 8z m201 -204 c26 -33 26 -54 1 -82 -34 -36 -67 -39 -99 -8 -26 25 -30 26
-157 26 -118 0 -130 2 -142 20 -12 20 -10 20 131 20 140 0 144 1 167 25 31 33
72 33 99 -1z m235 -205 c30 -24 34 -63 10 -97 -21 -30 -68 -29 -100 3 l-25 25
-241 0 c-240 0 -241 0 -223 20 17 19 31 20 245 20 197 0 229 2 241 16 12 14
43 32 60 33 4 1 18 -8 33 -20z m4 -169 c28 -26 29 -73 2 -100 -27 -27 -52 -25
-88 5 l-30 25 -312 0 c-312 0 -313 0 -295 20 17 19 31 20 313 20 l295 0 23 25
c28 30 63 32 92 5z m-5250 -295 c29 -24 36 -25 159 -25 117 0 132 -2 148 -20
18 -20 17 -20 -129 -20 -143 0 -148 -1 -174 -25 -39 -36 -75 -33 -102 10 -22
36 -21 45 13 83 26 29 48 28 85 -3z m4555 -132 c31 -35 30 -66 -2 -97 -22 -21
-36 -27 -53 -23 -20 5 -39 -9 -118 -88 l-95 -95 -153 0 c-150 0 -152 0 -142
20 10 19 21 20 148 20 l137 0 89 89 c52 52 86 94 82 100 -4 6 -5 24 -1 40 10
46 77 67 108 34z m-264 -69 c12 -15 21 -32 21 -39 0 -7 -9 -24 -21 -39 -26
-33 -77 -36 -104 -6 -10 11 -29 20 -42 20 -35 0 -28 15 23 55 57 43 94 46 123
9z m-3532 -444 c-7 -10 -25 -29 -40 -40 -19 -15 -27 -31 -27 -53 0 -38 -7 -50
-37 -66 -31 -16 -46 -14 -71 9 -44 41 -12 130 42 116 17 -4 33 6 71 44 47 47
49 49 62 30 12 -17 12 -23 0 -40z m-332 -65 c31 -30 31 -46 0 -83 -24 -29 -25
-36 -25 -164 l0 -133 -210 -210 c-180 -180 -209 -212 -203 -233 4 -16 -1 -30
-18 -48 -50 -54 -119 -10 -110 71 2 16 60 48 76 42 8 -4 95 76 219 200 l206
206 0 122 c0 120 -1 123 -25 139 -32 21 -33 61 -3 93 28 30 63 29 93 -2z m441
-46 c3 -6 -25 -43 -66 -84 -52 -52 -71 -78 -66 -90 9 -24 -21 -74 -50 -85 -18
-7 -33 -6 -55 5 -25 13 -29 21 -29 55 0 31 5 43 25 56 14 9 36 14 49 12 20 -4
38 9 98 69 75 76 82 80 94 62z m2860 -106 c29 -39 30 -53 3 -87 -24 -30 -63
-34 -91 -9 -26 23 -25 89 2 105 11 7 20 17 20 21 0 5 8 19 18 32 l17 23 3 -26
c2 -15 15 -41 28 -59z m-2736 -66 c0 -7 -16 -28 -35 -47 l-35 -34 0 -138 0
-138 -42 -47 c-24 -25 -85 -87 -137 -137 -52 -50 -101 -99 -110 -109 -28 -32
-129 -129 -150 -144 -12 -8 -21 -21 -21 -29 0 -8 -4 -14 -8 -14 -5 0 -58 -50
-118 -111 -60 -61 -118 -120 -129 -131 -11 -11 -39 -38 -63 -61 -35 -34 -42
-47 -38 -68 5 -29 -19 -63 -54 -74 -30 -9 -80 30 -80 63 0 36 37 72 74 72 27
0 78 47 433 402 l403 403 0 131 0 131 41 47 c40 45 69 59 69 33z m-706 -22
c11 -16 14 -34 10 -51 -7 -29 -59 -65 -81 -57 -10 4 -58 -37 -139 -118 -96
-96 -124 -130 -124 -150 0 -58 -60 -92 -103 -58 -55 42 -20 126 48 117 20 -2
49 21 148 120 103 103 123 128 119 148 -2 13 3 35 12 49 23 36 87 36 110 0z
m-871 -33 c22 -21 32 -22 197 -22 170 0 175 1 199 24 54 50 133 2 108 -65 -16
-40 -56 -55 -96 -35 -17 9 -31 21 -31 26 0 6 -67 10 -171 10 -166 0 -171 -1
-203 -25 -40 -30 -55 -31 -90 -4 -43 34 -30 94 24 111 24 8 38 3 63 -20z
m5288 -31 c36 -36 37 -60 4 -91 -24 -23 -25 -28 -25 -154 l0 -131 -209 -209
c-199 -199 -209 -211 -204 -241 4 -27 1 -35 -26 -55 -28 -19 -36 -20 -61 -10
-15 6 -34 25 -40 40 -10 25 -9 33 10 61 20 27 28 30 55 26 30 -5 42 5 235 198
l202 202 -1 124 c-2 117 -4 126 -27 150 -31 32 -31 63 1 94 32 32 50 31 86 -4z
m-4070 -80 c34 -35 36 -49 8 -85 -14 -18 -30 -26 -52 -26 -28 0 -63 -31 -309
-277 l-276 -276 -132 2 -131 2 -35 -30 c-42 -37 -57 -38 -89 -6 -31 30 -32 65
-2 92 38 34 56 36 86 5 l27 -27 131 5 130 5 269 268 c257 256 268 269 265 302
-2 30 2 37 31 55 42 26 44 25 79 -9z m-1395 -76 c25 -25 27 -25 194 -25 l170
0 16 25 c32 49 124 21 124 -38 0 -56 -79 -88 -117 -48 -16 17 -37 19 -193 23
-173 4 -175 3 -193 -19 -23 -29 -83 -32 -103 -5 -17 22 -18 66 -2 92 19 29 72
27 104 -5z m4410 4 c21 -20 33 -21 196 -20 160 1 174 3 190 21 9 11 29 20 45
20 69 0 99 -68 47 -109 -35 -28 -65 -26 -94 4 -23 25 -25 25 -190 25 -165 0
-167 0 -190 -25 -45 -48 -120 -24 -120 38 0 62 69 90 116 46z m884 1 c44 -44
13 -110 -51 -110 -21 0 -54 -27 -146 -118 -105 -104 -121 -123 -126 -160 -7
-39 -35 -72 -63 -72 -23 0 -74 51 -74 74 0 31 43 70 70 63 16 -4 47 21 149
122 112 110 128 130 124 152 -11 56 75 91 117 49z m-2375 -38 c17 -20 53 -67
80 -104 28 -37 53 -67 57 -68 4 0 46 47 94 105 l87 105 319 0 c309 0 319 -1
306 -19 -38 -54 -792 -991 -798 -991 -3 0 -65 73 -137 163 -72 89 -219 272
-328 407 -109 135 -231 286 -271 336 -41 50 -74 94 -74 98 0 3 143 6 318 6
l317 0 30 -38z m-1399 -9 c18 -24 17 -64 -2 -91 -11 -16 -25 -22 -52 -22 -35
0 -53 -16 -377 -340 l-340 -340 -131 0 c-118 0 -133 -2 -149 -20 -39 -43 -105
-13 -110 49 -3 33 16 56 55 66 20 5 32 -1 55 -25 l29 -30 119 0 118 0 336 335
c279 278 335 338 330 356 -9 35 30 79 71 79 21 0 40 -7 48 -17z m2624 -119
c52 -52 70 -64 89 -61 62 12 105 -69 61 -113 -45 -45 -130 -1 -115 58 5 20 -2
33 -37 67 -74 73 -90 93 -83 104 11 18 18 13 85 -55z m-1996 -55 c26 -31 26
-31 8 -63 -35 -60 -122 -41 -122 27 0 69 69 90 114 36z m1891 -14 c14 -13 25
-33 25 -45 0 -26 -43 -70 -67 -70 -27 1 -63 35 -63 61 0 25 46 79 67 79 8 0
25 -11 38 -25z m690 -70 c14 -13 25 -35 25 -49 0 -33 -46 -69 -80 -62 -21 4
-37 -7 -91 -60 l-65 -65 -277 0 c-158 0 -285 4 -295 10 -9 5 -42 35 -72 65
-49 51 -53 57 -39 71 14 14 22 10 83 -50 l68 -65 252 0 252 0 64 65 c52 52 64
71 62 91 -5 32 32 74 65 74 13 0 35 -11 48 -25z m-2498 -21 c4 -10 -6 -25 -28
-43 -26 -22 -34 -37 -38 -76 -5 -42 -11 -52 -38 -68 -32 -18 -33 -18 -63 3
-55 39 -32 120 35 120 23 0 41 10 70 40 43 44 53 48 62 24z m3407 -45 c34 -27
35 -70 1 -97 l-25 -20 0 -283 0 -284 -202 -202 -203 -203 -183 0 c-182 0 -184
0 -214 -25 -36 -31 -55 -31 -85 -3 -29 27 -29 65 -1 95 28 30 49 29 86 -2 29
-25 33 -25 208 -25 l179 0 187 187 188 188 0 280 c0 268 -1 281 -20 298 -31
26 -30 72 2 100 27 22 49 22 82 -4z m-193 -198 c36 -36 37 -63 4 -89 l-25 -20
0 -189 0 -188 -108 -108 -108 -108 -186 1 -185 2 -26 -26 c-33 -33 -52 -33
-87 2 -21 22 -27 35 -23 55 11 57 78 75 117 32 23 -25 24 -25 202 -25 l178 0
93 93 93 93 0 180 c0 180 0 181 -25 204 -32 30 -32 64 0 95 32 32 50 31 86 -4z
m-2947 -83 c9 -12 16 -34 16 -49 0 -15 7 -32 16 -39 28 -24 36 -48 23 -72 -26
-48 -67 -60 -107 -32 -32 22 -30 73 4 105 21 20 25 31 22 67 -4 47 3 53 26 20z
m2216 -53 c52 -53 69 -65 88 -60 23 6 61 -9 74 -29 13 -20 8 -69 -9 -88 -25
-28 -67 -23 -97 12 -14 18 -23 37 -19 46 4 10 -15 37 -58 80 l-63 64 -396 0
-395 0 -130 -130 c-95 -95 -129 -136 -127 -151 6 -37 -24 -69 -65 -69 -44 0
-73 24 -73 61 0 33 41 69 79 69 20 0 55 29 156 130 l130 130 420 0 421 0 64
-65z m-3140 15 c11 -11 20 -24 20 -30 0 -6 98 -10 273 -10 l274 0 132 -133
c116 -118 135 -133 160 -129 22 3 33 -3 54 -28 34 -40 34 -50 -2 -84 -22 -21
-34 -26 -55 -20 -33 8 -59 44 -54 77 2 20 -21 49 -122 151 l-125 126 -268 0
c-255 0 -270 -1 -298 -20 -27 -20 -30 -20 -59 -5 -48 25 -57 56 -29 94 27 37
69 41 99 11z m3008 -150 c46 -52 58 -60 88 -60 39 0 84 -36 84 -67 0 -61 -87
-88 -123 -38 -10 14 -17 34 -15 44 2 11 -18 43 -50 80 l-53 61 -274 0 -273 0
-55 -53 c-46 -43 -56 -59 -59 -91 -6 -76 -82 -95 -123 -32 -16 24 -16 27 5 62
20 31 27 35 56 32 28 -3 40 4 95 59 l63 63 291 0 291 0 52 -60z m-3133 -40
c17 -19 31 -20 289 -20 l271 0 139 -139 c100 -100 143 -137 156 -134 30 8 80
-28 80 -56 0 -28 -46 -81 -70 -81 -28 0 -73 56 -67 82 6 19 -13 43 -121 151
l-127 127 -268 0 c-254 0 -270 -1 -294 -20 -34 -27 -59 -25 -89 6 -29 28 -27
67 4 91 26 19 76 16 97 -7z m1315 -102 c16 -27 -22 -60 -63 -56 -23 2 -36 11
-50 35 -19 34 -15 54 21 92 16 17 19 17 50 -18 18 -20 37 -44 42 -53z m620
-76 l0 -97 -204 -205 c-179 -179 -204 -208 -200 -230 8 -36 -29 -80 -65 -80
-38 0 -66 33 -62 73 4 38 25 56 66 57 25 0 60 30 227 197 l198 198 0 68 c0 45
5 76 16 92 9 14 18 25 20 25 2 0 4 -44 4 -98z m1197 50 c33 -44 -7 -117 -61
-110 -21 2 -47 -18 -156 -127 l-130 -130 0 -125 0 -125 130 -130 c109 -109
135 -129 156 -127 31 4 74 -32 74 -62 0 -12 -10 -34 -23 -49 -19 -23 -27 -27
-54 -21 -37 7 -67 46 -59 77 5 22 -7 37 -138 168 -33 32 -62 60 -65 61 -4 2
-19 19 -34 39 -26 35 -27 40 -27 172 l0 135 135 136 c118 118 135 138 129 160
-4 17 1 34 17 56 21 28 28 31 58 25 19 -4 41 -14 48 -23z m-3137 -97 l23 -25
276 0 276 0 130 -130 c120 -120 133 -130 167 -130 42 0 68 -27 68 -71 0 -31
-40 -69 -72 -69 -30 0 -71 47 -64 73 5 18 -18 46 -127 155 l-132 132 -267 0
c-175 0 -268 -4 -268 -10 0 -6 -16 -18 -35 -27 -34 -16 -36 -16 -60 7 -33 31
-34 82 -3 104 32 23 61 20 88 -9z m1418 -29 c-10 -7 -18 -25 -18 -40 0 -15 -7
-40 -15 -56 -22 -42 -75 -42 -104 -1 -26 36 -26 42 0 75 15 18 30 26 53 26 18
0 41 8 52 19 17 17 21 17 34 4 13 -13 13 -16 -2 -27z m1262 7 c24 -31 20 -68
-10 -95 -18 -15 -20 -30 -20 -190 0 -174 0 -175 25 -196 14 -12 25 -29 25 -38
0 -19 -19 -56 -34 -66 -19 -13 -59 -9 -78 9 -26 23 -25 89 2 105 19 12 20 24
20 189 0 171 -1 176 -24 198 -17 16 -22 29 -18 49 11 64 73 84 112 35z m-1135
-133 c4 -6 2 -16 -3 -23 -6 -7 -12 -30 -14 -52 -2 -32 -8 -42 -30 -53 -23 -11
-33 -11 -55 0 -70 33 -45 118 38 129 24 3 47 7 51 7 4 1 10 -3 13 -8z m-1132
-77 c40 -37 6 -113 -50 -113 -40 0 -283 -242 -283 -282 0 -36 -24 -58 -65 -58
-37 0 -65 28 -65 65 0 31 45 70 78 67 22 -1 49 19 150 118 116 113 122 121
122 159 0 66 61 90 113 44z m2187 -438 c125 -125 138 -135 172 -135 68 0 91
-69 37 -114 -37 -32 -41 -32 -75 -3 -18 16 -26 33 -26 53 0 24 -21 51 -131
162 l-132 132 -120 0 -120 0 -133 -133 c-114 -115 -132 -137 -132 -164 0 -41
-36 -69 -77 -58 -40 10 -53 24 -53 58 0 40 26 67 64 67 27 0 51 20 166 135
l135 135 145 0 145 0 135 -135z"/>
<path d="M5444 8385 c-7 -18 2 -45 15 -45 6 0 15 10 22 21 9 17 8 23 -2 30
-20 13 -29 11 -35 -6z"/>
<path d="M5372 8058 c2 -15 10 -23 23 -23 30 0 27 39 -3 43 -20 3 -23 0 -20
-20z"/>
<path d="M6267 8066 c-3 -8 2 -21 12 -30 16 -15 20 -15 31 -1 7 8 10 22 6 30
-7 19 -42 20 -49 1z"/>
<path d="M5800 8224 c-11 -12 -11 -18 1 -29 12 -12 17 -12 33 0 20 15 16 45
-7 45 -8 0 -20 -7 -27 -16z"/>
<path d="M5351 7446 c-17 -20 -6 -49 16 -44 22 4 26 20 10 42 -12 16 -14 16
-26 2z"/>
<path d="M4007 8057 c-8 -21 8 -39 29 -35 27 5 25 42 -2 46 -12 2 -24 -3 -27
-11z"/>
<path d="M3553 7274 c-3 -8 2 -23 11 -32 15 -15 17 -15 33 0 13 14 14 20 3 32
-16 20 -39 20 -47 0z"/>
<path d="M5115 7967 c-23 -17 -14 -47 15 -47 26 0 37 27 18 46 -12 12 -17 12
-33 1z"/>
<path d="M5112 7481 c-23 -14 -10 -46 18 -46 20 0 25 5 25 25 0 26 -20 36 -43
21z"/>
<path d="M6388 7856 c-13 -10 -14 -14 -3 -30 16 -21 35 -13 35 14 0 25 -12 31
-32 16z"/>
<path d="M5506 7433 c-4 -9 -1 -22 6 -29 17 -17 53 8 45 31 -8 20 -43 19 -51
-2z"/>
<path d="M3860 7815 c0 -29 27 -45 41 -24 14 22 6 44 -19 47 -18 3 -22 -1 -22
-23z"/>
<path d="M3525 7486 c-23 -16 -13 -46 15 -46 15 0 20 7 20 24 0 31 -12 39 -35
22z"/>
<path d="M6535 7696 c-18 -13 -18 -14 3 -25 32 -17 42 -13 42 14 0 28 -17 32
-45 11z"/>
<path d="M6692 7548 c-14 -14 2 -48 24 -48 20 0 29 27 14 45 -15 18 -22 19
-38 3z"/>
<path d="M6654 7345 c-10 -24 12 -42 34 -29 24 16 21 38 -6 42 -13 2 -25 -3
-28 -13z"/>
<path d="M2745 7250 c-11 -17 5 -51 23 -48 23 4 23 52 0 56 -9 2 -19 -2 -23
-8z"/>
<path d="M2975 6370 c-3 -5 0 -19 8 -30 12 -17 16 -18 32 -6 16 12 17 16 6 30
-15 18 -37 21 -46 6z"/>
<path d="M2577 7063 c-12 -11 -7 -41 7 -46 17 -7 51 28 41 42 -7 12 -38 15
-48 4z"/>
<path d="M2588 6583 c-22 -5 -24 -41 -2 -50 8 -3 23 2 32 11 14 14 14 18 2 29
-8 8 -23 12 -32 10z"/>
<path d="M7619 6428 c-12 -41 12 -71 37 -46 19 18 8 48 -17 48 -10 0 -19 -1
-20 -2z"/>
<path d="M8267 5792 c-12 -2 -17 -11 -15 -25 4 -26 19 -31 41 -15 15 11 16 16
5 29 -7 9 -21 14 -31 11z"/>
<path d="M7570 6186 c0 -18 27 -39 40 -31 5 3 10 15 10 26 0 14 -7 19 -25 19
-15 0 -25 -6 -25 -14z"/>
<path d="M7777 6003 c-13 -12 -7 -41 10 -47 9 -4 23 0 31 8 13 12 13 18 2 30
-13 17 -32 21 -43 9z"/>
<path d="M8024 5786 c-9 -24 4 -48 23 -44 12 2 18 12 18 28 0 29 -32 41 -41
16z"/>
<path d="M8030 5615 c-11 -13 -11 -19 3 -33 20 -19 41 -5 35 24 -4 24 -22 28
-38 9z"/>
<path d="M2775 5326 c-19 -14 -19 -16 -3 -32 22 -22 50 -11 46 18 -4 27 -19
32 -43 14z"/>
<path d="M7324 5185 c-8 -19 3 -35 25 -35 25 0 32 10 20 31 -12 23 -37 25 -45
4z"/>
<path d="M7054 5125 c-8 -20 4 -35 27 -35 20 0 23 8 13 34 -8 20 -33 21 -40 1z"/>
<path d="M3447 4633 c-11 -10 -8 -41 4 -49 16 -9 43 21 36 40 -7 16 -28 21
-40 9z"/>
<path d="M3199 4628 c-13 -39 10 -73 33 -50 13 13 1 52 -18 52 -8 0 -14 -1
-15 -2z"/>
<path d="M2753 3843 c-7 -3 -13 -16 -13 -29 0 -17 5 -24 20 -24 11 0 23 7 27
16 7 18 -16 44 -34 37z"/>
<path d="M3478 4424 c-9 -8 3 -42 16 -47 22 -9 39 9 31 32 -6 19 -34 29 -47
15z"/>
<path d="M6500 4465 c-15 -18 -5 -35 20 -35 10 0 22 5 25 10 7 11 -12 40 -25
40 -4 0 -13 -7 -20 -15z"/>
<path d="M2850 3210 c0 -27 27 -37 47 -17 20 19 9 37 -23 37 -17 0 -24 -5 -24
-20z"/>
<path d="M3044 4379 c-3 -6 0 -18 9 -26 18 -18 37 -9 37 18 0 21 -34 27 -46 8z"/>
<path d="M2713 4053 c-7 -3 -13 -16 -13 -29 0 -19 5 -24 25 -24 14 0 25 6 25
13 0 20 -24 45 -37 40z"/>
<path d="M2182 4328 c4 -27 18 -32 42 -15 24 17 13 37 -20 37 -20 0 -25 -4
-22 -22z"/>
<path d="M2670 4331 c0 -26 15 -34 39 -21 26 14 16 40 -15 40 -17 0 -24 -6
-24 -19z"/>
<path d="M7480 4305 c-9 -11 -10 -19 -3 -26 17 -17 48 -6 48 16 0 25 -28 31
-45 10z"/>
<path d="M7033 3532 c-26 -4 -30 -24 -9 -41 18 -15 46 -3 46 19 0 23 -8 27
-37 22z"/>
<path d="M3410 4235 c-16 -19 -6 -45 19 -45 15 0 39 29 29 34 -2 1 -10 7 -19
14 -13 10 -19 9 -29 -3z"/>
<path d="M2485 3637 c-22 -17 -14 -47 14 -47 24 0 36 29 18 47 -11 11 -16 11
-32 0z"/>
<path d="M1997 4156 c-6 -15 11 -36 29 -36 21 0 35 25 22 38 -16 16 -45 15
-51 -2z"/>
<path d="M2487 4156 c-3 -8 0 -19 7 -25 18 -15 48 -3 44 18 -4 21 -44 27 -51
7z"/>
<path d="M6420 4165 c-15 -18 -6 -44 14 -41 23 3 29 12 21 35 -8 25 -18 27
-35 6z"/>
<path d="M6904 4165 c-18 -13 -18 -15 -2 -31 18 -18 48 -13 48 9 0 26 -25 38
-46 22z"/>
<path d="M7305 4164 c-18 -13 -18 -15 -3 -30 18 -19 48 -12 48 9 0 26 -23 37
-45 21z"/>
<path d="M6957 3823 c-13 -12 -7 -41 10 -47 9 -4 23 0 31 8 13 12 13 18 2 30
-13 17 -32 21 -43 9z"/>
<path d="M3528 4116 c-15 -11 -16 -16 -4 -31 18 -24 49 -13 44 17 -4 26 -18
31 -40 14z"/>
<path d="M2480 3395 c-15 -18 -6 -45 13 -45 8 0 20 7 27 15 10 12 10 18 0 30
-16 19 -24 19 -40 0z"/>
<path d="M6306 3914 c-25 -18 -13 -46 16 -42 14 2 24 11 26 24 4 27 -18 36
-42 18z"/>
<path d="M4157 3954 c-10 -10 -9 -42 2 -48 18 -11 42 6 39 28 -3 21 -28 33
-41 20z"/>
<path d="M6050 3916 c0 -31 14 -40 40 -26 16 9 18 15 10 30 -16 29 -50 26 -50
-4z"/>
<path d="M6735 3861 c-8 -15 14 -53 28 -48 18 6 15 51 -5 55 -9 2 -19 -2 -23
-7z"/>
<path d="M4150 3735 c0 -22 4 -26 23 -23 14 2 22 10 22 23 0 13 -8 21 -22 23
-19 3 -23 -1 -23 -23z"/>
<path d="M7646 3784 c-9 -22 17 -49 39 -40 10 3 15 15 13 28 -4 29 -42 37 -52
12z"/>
<path d="M6824 2766 c-9 -24 4 -48 23 -44 12 2 18 12 18 28 0 29 -32 41 -41
16z"/>
<path d="M7465 3597 c-23 -17 -14 -47 15 -47 26 0 37 27 18 46 -12 12 -17 12
-33 1z"/>
<path d="M6820 2945 c0 -22 4 -26 23 -23 14 2 22 10 22 23 0 13 -8 21 -22 23
-19 3 -23 -1 -23 -23z"/>
<path d="M4552 3421 c-19 -11 -11 -45 11 -49 9 -2 20 4 23 13 9 21 -16 47 -34
36z"/>
<path d="M6878 3377 c-22 -17 -6 -47 23 -40 13 4 19 12 17 26 -4 25 -18 30
-40 14z"/>
<path d="M5569 3234 c-15 -18 0 -38 27 -32 25 5 28 25 6 37 -15 8 -23 7 -33
-5z"/>
<path d="M3577 3468 c-7 -21 19 -52 38 -44 24 9 15 50 -11 54 -12 2 -24 -3
-27 -10z"/>
<path d="M4497 3153 c-12 -11 -7 -41 7 -46 8 -3 22 0 32 8 15 11 16 15 5 29
-14 17 -33 21 -44 9z"/>
<path d="M6743 3243 c-16 -6 -17 -25 -2 -40 17 -17 39 -4 39 23 0 23 -11 28
-37 17z"/>
<path d="M5834 3228 c-8 -12 24 -40 41 -35 5 2 11 13 13 25 3 18 -2 22 -22 22
-14 0 -28 -5 -32 -12z"/>
<path d="M3444 3275 c-10 -24 12 -42 34 -29 24 16 21 38 -6 42 -13 2 -25 -3
-28 -13z"/>
<path d="M4371 2966 c-17 -20 -6 -36 25 -36 21 0 25 4 22 22 -4 27 -30 35 -47
14z"/>
<path d="M4761 3226 c-9 -10 -8 -16 4 -26 20 -16 45 -6 45 20 0 23 -31 28 -49
6z"/>
<path d="M4970 2591 c0 -26 15 -34 39 -21 26 14 16 40 -15 40 -17 0 -24 -6
-24 -19z"/>
<path d="M6582 3157 c-9 -10 -8 -18 2 -32 18 -25 48 -13 44 17 -4 27 -30 35
-46 15z"/>
<path d="M6574 2256 c-9 -23 13 -45 37 -39 14 4 19 12 17 27 -4 26 -45 35 -54
12z"/>
<path d="M3450 3046 c0 -29 24 -41 40 -20 10 11 10 17 0 29 -19 23 -40 18 -40
-9z"/>
<path d="M4371 2747 c-15 -19 9 -50 32 -41 21 8 22 40 1 48 -21 8 -20 8 -33
-7z"/>
<path d="M4832 3018 c-7 -7 -12 -18 -12 -24 0 -15 35 -28 50 -19 16 10 12 42
-6 49 -20 8 -18 8 -32 -6z"/>
<path d="M6131 3031 c-15 -27 13 -51 35 -29 17 16 9 48 -12 48 -7 0 -18 -9
-23 -19z"/>
<path d="M6124 2545 c-4 -9 -2 -21 4 -27 16 -16 47 -5 47 17 0 26 -42 34 -51
10z"/>
<path d="M4964 2869 c-3 -6 0 -18 9 -26 18 -18 37 -9 37 18 0 21 -34 27 -46 8z"/>
<path d="M3867 2833 c-11 -10 -8 -41 4 -49 6 -3 18 1 27 9 13 13 13 19 2 31
-14 17 -23 20 -33 9z"/>
<path d="M3520 2485 c-17 -20 -6 -45 20 -45 17 0 21 5 18 27 -4 31 -20 40 -38
18z"/>
<path d="M5367 2226 c-7 -19 18 -40 38 -32 8 3 15 15 15 26 0 14 -7 20 -24 20
-13 0 -26 -6 -29 -14z"/>
<path d="M6267 2226 c-3 -8 2 -21 12 -30 16 -15 20 -15 31 -1 7 8 10 22 6 30
-7 19 -42 20 -49 1z"/>
<path d="M4970 8425 c0 -26 7 -29 34 -19 27 10 20 44 -9 44 -20 0 -25 -5 -25
-25z"/>
<path d="M6125 8360 c3 -5 15 -10 26 -10 11 0 17 5 14 10 -3 6 -15 10 -26 10
-11 0 -17 -4 -14 -10z"/>
<path d="M6573 8094 c-3 -8 2 -23 11 -32 15 -15 17 -15 32 0 21 21 11 48 -16
48 -11 0 -23 -7 -27 -16z"/>
<path d="M6762 7991 c-19 -12 -11 -45 12 -49 27 -6 40 12 27 37 -13 23 -19 25
-39 12z"/>
<path d="M7080 7865 c0 -18 5 -25 19 -25 26 0 36 17 21 35 -19 23 -40 18 -40
-10z"/>
<path d="M6757 7793 c-10 -10 -8 -41 3 -48 5 -3 19 -1 30 5 16 9 18 15 10 30
-11 20 -31 26 -43 13z"/>
<path d="M3550 7755 c-9 -11 -10 -18 -1 -29 17 -21 53 -8 49 18 -4 26 -30 32
-48 11z"/>
<path d="M2440 7225 c-7 -9 -11 -18 -8 -20 3 -3 11 1 18 10 7 9 11 18 8 20 -3
3 -11 -1 -18 -10z"/>
<path d="M7814 6815 c-9 -23 3 -45 26 -45 25 0 37 25 20 45 -16 19 -39 19 -46
0z"/>
<path d="M2410 6746 c0 -31 12 -39 35 -22 23 16 13 46 -15 46 -15 0 -20 -7
-20 -24z"/>
<path d="M8100 6684 l0 -79 81 -80 81 -80 -77 155 c-43 85 -79 157 -81 159 -2
2 -4 -31 -4 -75z"/>
<path d="M7420 6600 c0 -27 27 -37 47 -17 20 19 9 37 -23 37 -17 0 -24 -5 -24
-20z"/>
<path d="M3117 6514 c-4 -4 -7 -18 -7 -31 0 -20 5 -24 23 -21 16 2 22 10 22
28 0 24 -23 39 -38 24z"/>
<path d="M2840 6210 c0 -25 25 -36 45 -20 25 21 18 40 -15 40 -23 0 -30 -4
-30 -20z"/>
<path d="M1934 5996 c-9 -24 4 -48 23 -44 12 2 18 12 18 28 0 29 -32 41 -41
16z"/>
<path d="M2181 5782 c-7 -13 -6 -23 1 -30 28 -28 63 3 38 33 -16 20 -27 19
-39 -3z"/>
<path d="M2607 5794 c-12 -12 -8 -42 6 -47 21 -8 39 8 35 29 -3 19 -29 30 -41
18z"/>
<path d="M8444 5786 c-4 -11 0 -24 10 -34 16 -16 17 -15 10 13 -9 38 -12 42
-20 21z"/>
<path d="M2407 5770 c8 -29 22 -35 40 -17 19 19 9 37 -22 37 -18 0 -22 -4 -18
-20z"/>
<path d="M2184 5616 c-18 -14 -18 -16 -1 -33 16 -16 18 -16 33 -1 16 16 13 48
-4 48 -4 0 -17 -6 -28 -14z"/>
<path d="M2940 5105 c-9 -11 -10 -19 -3 -26 17 -17 48 -6 48 16 0 25 -28 31
-45 10z"/>
<path d="M7530 4874 c-11 -12 -10 -18 3 -31 22 -23 52 0 36 28 -12 23 -22 24
-39 3z"/>
<path d="M1722 4860 c0 -14 2 -19 5 -12 2 6 2 18 0 25 -3 6 -5 1 -5 -13z"/>
<path d="M3157 4846 c-9 -23 18 -39 43 -26 17 9 19 14 9 26 -15 18 -45 18 -52
0z"/>
<path d="M2970 4660 c-11 -7 -12 -14 -4 -27 13 -22 25 -25 44 -13 11 7 12 14
4 27 -13 22 -25 25 -44 13z"/>
<path d="M6956 4654 c-9 -22 17 -49 39 -40 10 3 15 15 13 28 -4 29 -42 37 -52
12z"/>
<path d="M6763 4454 c-6 -16 12 -34 35 -34 6 0 12 11 12 25 0 18 -5 25 -20 25
-11 0 -23 -7 -27 -16z"/>
<path d="M8020 4331 c0 -11 5 -23 10 -26 18 -11 50 6 50 26 0 14 -7 19 -30 19
-23 0 -30 -5 -30 -19z"/>
<path d="M7844 4155 c-7 -17 3 -35 19 -35 23 0 38 17 31 33 -8 21 -43 22 -50
2z"/>
<path d="M8327 4156 c-7 -19 18 -40 38 -32 8 3 15 15 15 26 0 14 -7 20 -24 20
-13 0 -26 -6 -29 -14z"/>
<path d="M2013 3993 c-7 -3 -13 -16 -13 -30 0 -20 4 -24 23 -21 13 2 23 11 25
24 3 22 -13 34 -35 27z"/>
<path d="M7852 3991 c-21 -13 -10 -46 16 -49 27 -4 40 22 22 43 -14 17 -20 18
-38 6z"/>
<path d="M2155 3790 c-12 -20 6 -51 28 -48 31 4 31 52 0 56 -11 2 -24 -2 -28
-8z"/>
<path d="M8000 3785 c-11 -13 -11 -19 3 -32 21 -21 49 -9 45 19 -4 28 -30 35
-48 13z"/>
<path d="M2686 3221 c-8 -13 4 -41 18 -41 19 1 48 28 41 39 -8 13 -52 14 -59
2z"/>
<path d="M6110 3216 c0 -18 27 -39 40 -31 5 3 10 15 10 26 0 14 -7 19 -25 19
-15 0 -25 -6 -25 -14z"/>
<path d="M3082 2963 c2 -20 8 -28 23 -28 31 0 28 49 -3 53 -20 3 -23 0 -20
-25z"/>
<path d="M4538 2863 c-22 -5 -24 -41 -2 -50 8 -3 22 1 30 9 11 11 12 17 2 29
-7 9 -21 14 -30 12z"/>
<path d="M4728 2859 c-10 -5 -18 -16 -18 -23 0 -20 31 -29 47 -13 8 7 11 21 7
30 -7 19 -12 20 -36 6z"/>
<path d="M2635 2800 c-8 -13 13 -40 31 -40 20 0 27 19 14 35 -14 17 -36 19
-45 5z"/>
<path d="M3275 2780 c-8 -26 1 -40 26 -40 28 0 37 30 14 46 -25 19 -33 18 -40
-6z"/>
<path d="M4007 2696 c-3 -8 1 -20 9 -27 12 -10 18 -9 31 3 8 9 12 21 9 27 -10
16 -43 14 -49 -3z"/>
<path d="M2817 2673 c-4 -3 -7 -15 -7 -25 0 -13 7 -18 25 -18 27 0 33 18 13
38 -14 14 -22 15 -31 5z"/>
<path d="M6624 2565 c-4 -9 -2 -21 4 -27 16 -16 47 -5 47 17 0 26 -42 34 -51
10z"/>
<path d="M5442 2533 c3 -32 25 -37 42 -10 8 14 8 20 -4 27 -28 18 -41 11 -38
-17z"/>
<path d="M5800 2384 c-11 -12 -10 -18 3 -32 16 -15 18 -15 33 0 19 18 12 48
-9 48 -8 0 -20 -7 -27 -16z"/>
<path d="M6957 2275 c-37 -36 -64 -65 -61 -65 8 0 136 83 173 112 l24 18 -34
0 c-28 -1 -46 -12 -102 -65z"/>
<path d="M4007 2216 c-3 -8 1 -22 8 -33 13 -17 15 -17 31 -1 9 9 14 24 11 32
-8 20 -43 21 -50 2z"/>
<path d="M6763 2153 c-7 -2 -13 -11 -13 -19 0 -12 4 -12 20 -2 31 20 26 35 -7
21z"/>
<path d="M5115 2127 c-23 -17 -14 -47 15 -47 26 0 37 27 18 46 -12 12 -17 12
-33 1z"/>
<path d="M6382 2018 c-14 -18 13 -57 29 -41 13 13 9 45 -7 50 -6 2 -16 -2 -22
-9z"/>
<path d="M3867 1993 c-11 -10 -8 -41 4 -49 16 -9 41 20 33 39 -6 17 -25 22
-37 10z"/>
<path d="M5860 1875 c-58 -58 -99 -105 -92 -105 48 0 283 63 457 122 147 50
137 45 123 68 -12 19 -23 20 -198 20 l-185 0 -105 -105z"/>
<path d="M5310 895 l0 -55 40 0 c27 0 47 7 60 20 42 42 12 90 -58 90 l-42 0 0
-55z"/>
<path d="M5320 713 c0 -83 7 -94 49 -87 58 10 81 29 81 69 0 43 -29 65 -87 65
l-43 0 0 -47z"/>
</g>
</svg>
